<?xml version="1.0" encoding="UTF-8" standalone="no"?>
<!-- Created with Inkscape (https://www.inkscape.org/) -->

<svg
   xmlns:dc="https://purl.org/dc/elements/1.1/"
   xmlns:cc="https://creativecommons.org/ns#"
   xmlns:rdf="https://www.w3.org/1999/02/22-rdf-syntax-ns#"
   xmlns:svg="https://www.w3.org/2000/svg"
   xmlns="https://www.w3.org/2000/svg"
   xmlns:sodipodi="https://sodipodi.sourceforge.net/DTD/sodipodi-0.dtd"
   xmlns:inkscape="https://www.inkscape.org/namespaces/inkscape"
   id="svg2"
   version="1.1"
   inkscape:version="0.48.4 r9939"
   width="737.5"
   height="1825"
   xml:space="preserve"
   sodipodi:docname="New document 1"><metadata
     id="metadata8"><rdf:RDF><cc:Work
         rdf:about=""><dc:format>image/svg+xml</dc:format><dc:type
           rdf:resource="https://purl.org/dc/dcmitype/StillImage" /></cc:Work></rdf:RDF></metadata><defs
     id="defs6"><clipPath
       clipPathUnits="userSpaceOnUse"
       id="clipPath16"><path
         d="m 0,1067 590,0 0,392.999 -590,0 L 0,1067 z"
         id="path18" /></clipPath><radialGradient
       fx="0"
       fy="0"
       cx="0"
       cy="0"
       r="1"
       gradientUnits="userSpaceOnUse"
       gradientTransform="matrix(351.0032,0,0,-268.18573,295,1263.5)"
       spreadMethod="pad"
       id="radialGradient24"><stop
         style="stop-opacity:1;stop-color:#ffffff"
         offset="0"
         id="stop26" /><stop
         style="stop-opacity:1;stop-color:#f4f4f4"
         offset="1"
         id="stop28" /></radialGradient><clipPath
       clipPathUnits="userSpaceOnUse"
       id="clipPath36"><path
         d="m 0,427 590,0 0,247 -590,0 0,-247 z"
         id="path38" /></clipPath><radialGradient
       fx="0"
       fy="0"
       cx="0"
       cy="0"
       r="1"
       gradientUnits="userSpaceOnUse"
       gradientTransform="matrix(351.0032,0,0,-168.55438,295,550.5)"
       spreadMethod="pad"
       id="radialGradient44"><stop
         style="stop-opacity:1;stop-color:#ffffff"
         offset="0"
         id="stop46" /><stop
         style="stop-opacity:1;stop-color:#f4f4f4"
         offset="1"
         id="stop48" /></radialGradient><clipPath
       clipPathUnits="userSpaceOnUse"
       id="clipPath60"><path
         d="m 0,1460 590,0 L 590,0 0,0 0,1460 z"
         id="path62" /></clipPath><clipPath
       clipPathUnits="userSpaceOnUse"
       id="clipPath320"><path
         d="m 292.315,1268.793 7.44,-10.796 c 5.992,5.202 14.485,16.564 14.485,16.564 l 0,0 -20.684,2.477 -1.241,-8.245 z"
         id="path322" /></clipPath><linearGradient
       x1="0"
       y1="0"
       x2="1"
       y2="0"
       gradientUnits="userSpaceOnUse"
       gradientTransform="matrix(14.518157,10.804211,10.804211,-14.518157,295.8764,1266.9376)"
       spreadMethod="pad"
       id="linearGradient328"><stop
         style="stop-opacity:1;stop-color:#ed1c24"
         offset="0"
         id="stop330" /><stop
         style="stop-opacity:1;stop-color:#bf1b2c"
         offset="1"
         id="stop332" /></linearGradient><clipPath
       clipPathUnits="userSpaceOnUse"
       id="clipPath340"><path
         d="m 190.219,1298.724 0.122,-0.094 c -3.964,-29.053 16.579,-56.237 57.604,-49.635 l 0,0 c -28.135,-0.33 -47.829,23.81 -44.162,48.018 l 0,0 c 4.14,27.324 32.621,45.242 60.963,37.776 l 0,0 c -6.721,2.47 -13.582,3.628 -20.292,3.628 l 0,0 c -24.836,0 -47.665,-15.85 -54.235,-39.693"
         id="path342" /></clipPath><linearGradient
       x1="0"
       y1="0"
       x2="1"
       y2="0"
       gradientUnits="userSpaceOnUse"
       gradientTransform="matrix(31.804693,-31.804693,-31.804693,-31.804693,204.76183,1326.3617)"
       spreadMethod="pad"
       id="linearGradient348"><stop
         style="stop-opacity:1;stop-color:#ed1c24"
         offset="0"
         id="stop350" /><stop
         style="stop-opacity:1;stop-color:#bf1b2c"
         offset="1"
         id="stop352" /></linearGradient><clipPath
       clipPathUnits="userSpaceOnUse"
       id="clipPath360"><path
         d="m 340.462,1304.42 10.228,11.681 -19.225,17.941 8.997,-29.622 z"
         id="path362" /></clipPath><linearGradient
       x1="0"
       y1="0"
       x2="1"
       y2="0"
       gradientUnits="userSpaceOnUse"
       gradientTransform="matrix(10.784418,5.9238353,5.9238353,-10.784418,334.88718,1318.6403)"
       spreadMethod="pad"
       id="linearGradient368"><stop
         style="stop-opacity:1;stop-color:#ed1c24"
         offset="0"
         id="stop370" /><stop
         style="stop-opacity:1;stop-color:#bf1b2c"
         offset="1"
         id="stop372" /></linearGradient><clipPath
       clipPathUnits="userSpaceOnUse"
       id="clipPath380"><path
         d="m 356.186,1341.124 8.969,0.102 -15.704,9.815 6.735,-9.917 z"
         id="path382" /></clipPath><linearGradient
       x1="0"
       y1="0"
       x2="1"
       y2="0"
       gradientUnits="userSpaceOnUse"
       gradientTransform="matrix(17.869999,0.6498181,0.6498181,-17.869999,349.5864,1345.853)"
       spreadMethod="pad"
       id="linearGradient388"><stop
         style="stop-opacity:1;stop-color:#ed1c24"
         offset="0"
         id="stop390" /><stop
         style="stop-opacity:1;stop-color:#bf1b2c"
         offset="1"
         id="stop392" /></linearGradient><clipPath
       clipPathUnits="userSpaceOnUse"
       id="clipPath400"><path
         d="m 298.216,1346.748 26.737,-7.538 -22.03,22.453 -4.707,-14.915 z"
         id="path402" /></clipPath><linearGradient
       x1="0"
       y1="0"
       x2="1"
       y2="0"
       gradientUnits="userSpaceOnUse"
       gradientTransform="matrix(30.812567,1.1204569,1.1204569,-30.812567,298.01132,1349.8573)"
       spreadMethod="pad"
       id="linearGradient408"><stop
         style="stop-opacity:1;stop-color:#ed1c24"
         offset="0"
         id="stop410" /><stop
         style="stop-opacity:1;stop-color:#bf1b2c"
         offset="1"
         id="stop412" /></linearGradient><clipPath
       clipPathUnits="userSpaceOnUse"
       id="clipPath420"><path
         d="m 0,1460 590,0 L 590,0 0,0 0,1460 z"
         id="path422" /></clipPath><clipPath
       clipPathUnits="userSpaceOnUse"
       id="clipPath432"><path
         d="m 344.724,1252.966 c 11.779,3.313 24.177,14.723 24.177,14.723 l 0,0 -9.342,1.153 c -5.536,-10.354 -14.835,-15.876 -14.835,-15.876"
         id="path434" /></clipPath><linearGradient
       x1="0"
       y1="0"
       x2="1"
       y2="0"
       gradientUnits="userSpaceOnUse"
       gradientTransform="matrix(19.590223,15.656444,15.656444,-19.590223,347.25684,1254.6187)"
       spreadMethod="pad"
       id="linearGradient440"><stop
         style="stop-opacity:1;stop-color:#ed1c24"
         offset="0"
         id="stop442" /><stop
         style="stop-opacity:1;stop-color:#bf1b2c"
         offset="1"
         id="stop444" /></linearGradient><clipPath
       clipPathUnits="userSpaceOnUse"
       id="clipPath452"><path
         d="m 0,1460 590,0 L 590,0 0,0 0,1460 z"
         id="path454" /></clipPath><clipPath
       clipPathUnits="userSpaceOnUse"
       id="clipPath468"><path
         d="m 167.205,517.144 4.654,-6.756 c 3.751,3.255 9.065,10.366 9.065,10.366 l 0,0 -12.944,1.55 -0.775,-5.16 z"
         id="path470" /></clipPath><linearGradient
       x1="0"
       y1="0"
       x2="1"
       y2="0"
       gradientUnits="userSpaceOnUse"
       gradientTransform="matrix(9.085638,6.761405,6.761405,-9.085638,169.43274,515.98328)"
       spreadMethod="pad"
       id="linearGradient476"><stop
         style="stop-opacity:1;stop-color:#ed1c24"
         offset="0"
         id="stop478" /><stop
         style="stop-opacity:1;stop-color:#bf1b2c"
         offset="1"
         id="stop480" /></linearGradient><clipPath
       clipPathUnits="userSpaceOnUse"
       id="clipPath488"><path
         d="m 103.311,535.875 0.076,-0.058 c -2.48,-18.182 10.376,-35.194 36.05,-31.063 l 0,0 c -17.608,-0.206 -29.932,14.901 -27.637,30.051 l 0,0 c 2.591,17.099 20.414,28.312 38.151,23.64 l 0,0 c -4.206,1.546 -8.5,2.271 -12.699,2.271 l 0,0 c -15.542,10e-4 -29.829,-9.919 -33.941,-24.841"
         id="path490" /></clipPath><linearGradient
       x1="0"
       y1="0"
       x2="1"
       y2="0"
       gradientUnits="userSpaceOnUse"
       gradientTransform="matrix(19.903763,-19.903763,-19.903763,-19.903763,112.41214,553.17151)"
       spreadMethod="pad"
       id="linearGradient496"><stop
         style="stop-opacity:1;stop-color:#ed1c24"
         offset="0"
         id="stop498" /><stop
         style="stop-opacity:1;stop-color:#bf1b2c"
         offset="1"
         id="stop500" /></linearGradient><clipPath
       clipPathUnits="userSpaceOnUse"
       id="clipPath508"><path
         d="m 197.335,539.441 6.402,7.309 -12.033,11.227 5.631,-18.536 z"
         id="path510" /></clipPath><linearGradient
       x1="0"
       y1="0"
       x2="1"
       y2="0"
       gradientUnits="userSpaceOnUse"
       gradientTransform="matrix(6.7490191,3.7072077,3.7072077,-6.7490191,193.84615,548.33936)"
       spreadMethod="pad"
       id="linearGradient516"><stop
         style="stop-opacity:1;stop-color:#ed1c24"
         offset="0"
         id="stop518" /><stop
         style="stop-opacity:1;stop-color:#bf1b2c"
         offset="1"
         id="stop520" /></linearGradient><clipPath
       clipPathUnits="userSpaceOnUse"
       id="clipPath528"><path
         d="m 207.175,562.41 5.613,0.064 -9.828,6.142 4.215,-6.206 z"
         id="path530" /></clipPath><linearGradient
       x1="0"
       y1="0"
       x2="1"
       y2="0"
       gradientUnits="userSpaceOnUse"
       gradientTransform="matrix(11.183261,0.406664,0.406664,-11.183261,203.0451,565.36945)"
       spreadMethod="pad"
       id="linearGradient536"><stop
         style="stop-opacity:1;stop-color:#ed1c24"
         offset="0"
         id="stop538" /><stop
         style="stop-opacity:1;stop-color:#bf1b2c"
         offset="1"
         id="stop540" /></linearGradient><clipPath
       clipPathUnits="userSpaceOnUse"
       id="clipPath548"><path
         d="m 170.896,565.93 16.733,-4.718 -13.787,14.052 -2.946,-9.334 z"
         id="path550" /></clipPath><linearGradient
       x1="0"
       y1="0"
       x2="1"
       y2="0"
       gradientUnits="userSpaceOnUse"
       gradientTransform="matrix(19.282875,0.7011955,0.7011955,-19.282875,170.7688,567.87537)"
       spreadMethod="pad"
       id="linearGradient556"><stop
         style="stop-opacity:1;stop-color:#ed1c24"
         offset="0"
         id="stop558" /><stop
         style="stop-opacity:1;stop-color:#bf1b2c"
         offset="1"
         id="stop560" /></linearGradient><clipPath
       clipPathUnits="userSpaceOnUse"
       id="clipPath568"><path
         d="m 0,1460 590,0 L 590,0 0,0 0,1460 z"
         id="path570" /></clipPath><clipPath
       clipPathUnits="userSpaceOnUse"
       id="clipPath580"><path
         d="m 200.003,507.24 c 7.371,2.073 15.129,9.213 15.129,9.213 l 0,0 -5.846,0.721 c -3.465,-6.479 -9.283,-9.934 -9.283,-9.934"
         id="path582" /></clipPath><linearGradient
       x1="0"
       y1="0"
       x2="1"
       y2="0"
       gradientUnits="userSpaceOnUse"
       gradientTransform="matrix(12.259798,9.7979918,9.7979918,-12.259798,201.58722,508.2739)"
       spreadMethod="pad"
       id="linearGradient588"><stop
         style="stop-opacity:1;stop-color:#ed1c24"
         offset="0"
         id="stop590" /><stop
         style="stop-opacity:1;stop-color:#bf1b2c"
         offset="1"
         id="stop592" /></linearGradient><clipPath
       clipPathUnits="userSpaceOnUse"
       id="clipPath600"><path
         d="m 0,1460 590,0 L 590,0 0,0 0,1460 z"
         id="path602" /></clipPath><clipPath
       clipPathUnits="userSpaceOnUse"
       id="clipPath868"><path
         d="m 299.558,885.961 7.191,-10.436 c 5.792,5.029 14.001,16.012 14.001,16.012 l 0,0 -19.993,2.393 -1.199,-7.969 z"
         id="path870" /></clipPath><linearGradient
       x1="0"
       y1="0"
       x2="1"
       y2="0"
       gradientUnits="userSpaceOnUse"
       gradientTransform="matrix(14.033521,10.443551,10.443551,-14.033521,302.99966,884.16766)"
       spreadMethod="pad"
       id="linearGradient876"><stop
         style="stop-opacity:1;stop-color:#ed1c24"
         offset="0"
         id="stop878" /><stop
         style="stop-opacity:1;stop-color:#bf1b2c"
         offset="1"
         id="stop880" /></linearGradient><clipPath
       clipPathUnits="userSpaceOnUse"
       id="clipPath888"><path
         d="m 200.869,914.893 0.118,-0.091 c -3.831,-28.083 16.025,-54.36 55.681,-47.979 l 0,0 c -27.196,-0.317 -46.233,23.016 -42.688,46.416 l 0,0 c 4.003,26.412 31.533,43.731 58.929,36.515 l 0,0 c -6.497,2.387 -13.129,3.506 -19.615,3.507 l 0,0 c -24.007,10e-4 -46.074,-15.32 -52.425,-38.368"
         id="path890" /></clipPath><linearGradient
       x1="0"
       y1="0"
       x2="1"
       y2="0"
       gradientUnits="userSpaceOnUse"
       gradientTransform="matrix(30.74301,-30.74301,-30.74301,-30.74301,214.92665,941.60797)"
       spreadMethod="pad"
       id="linearGradient896"><stop
         style="stop-opacity:1;stop-color:#ed1c24"
         offset="0"
         id="stop898" /><stop
         style="stop-opacity:1;stop-color:#bf1b2c"
         offset="1"
         id="stop900" /></linearGradient><clipPath
       clipPathUnits="userSpaceOnUse"
       id="clipPath908"><path
         d="m 346.097,920.399 9.887,11.29 -18.584,17.343 8.697,-28.633 z"
         id="path910" /></clipPath><linearGradient
       x1="0"
       y1="0"
       x2="1"
       y2="0"
       gradientUnits="userSpaceOnUse"
       gradientTransform="matrix(10.424419,5.7260895,5.7260895,-10.424419,340.70822,934.14429)"
       spreadMethod="pad"
       id="linearGradient916"><stop
         style="stop-opacity:1;stop-color:#ed1c24"
         offset="0"
         id="stop918" /><stop
         style="stop-opacity:1;stop-color:#bf1b2c"
         offset="1"
         id="stop920" /></linearGradient><clipPath
       clipPathUnits="userSpaceOnUse"
       id="clipPath928"><path
         d="m 361.296,955.877 8.67,0.099 -15.181,9.487 6.511,-9.586 z"
         id="path930" /></clipPath><linearGradient
       x1="0"
       y1="0"
       x2="1"
       y2="0"
       gradientUnits="userSpaceOnUse"
       gradientTransform="matrix(17.273474,0.6281263,0.6281263,-17.273474,354.91675,960.44873)"
       spreadMethod="pad"
       id="linearGradient936"><stop
         style="stop-opacity:1;stop-color:#ed1c24"
         offset="0"
         id="stop938" /><stop
         style="stop-opacity:1;stop-color:#bf1b2c"
         offset="1"
         id="stop940" /></linearGradient><clipPath
       clipPathUnits="userSpaceOnUse"
       id="clipPath948"><path
         d="m 305.261,961.314 25.845,-7.287 -21.295,21.703 -4.55,-14.416 z"
         id="path950" /></clipPath><linearGradient
       x1="0"
       y1="0"
       x2="1"
       y2="0"
       gradientUnits="userSpaceOnUse"
       gradientTransform="matrix(29.784,1.0830545,1.0830545,-29.784,305.06335,964.31927)"
       spreadMethod="pad"
       id="linearGradient956"><stop
         style="stop-opacity:1;stop-color:#ed1c24"
         offset="0"
         id="stop958" /><stop
         style="stop-opacity:1;stop-color:#bf1b2c"
         offset="1"
         id="stop960" /></linearGradient><clipPath
       clipPathUnits="userSpaceOnUse"
       id="clipPath968"><path
         d="m 0,1460 590,0 L 590,0 0,0 0,1460 z"
         id="path970" /></clipPath><clipPath
       clipPathUnits="userSpaceOnUse"
       id="clipPath980"><path
         d="m 350.217,870.663 c 11.385,3.202 23.369,14.23 23.369,14.23 l 0,0 -9.029,1.115 C 359.205,876 350.217,870.663 350.217,870.663"
         id="path982" /></clipPath><linearGradient
       x1="0"
       y1="0"
       x2="1"
       y2="0"
       gradientUnits="userSpaceOnUse"
       gradientTransform="matrix(18.936274,15.13381,15.13381,-18.936274,352.66495,872.25989)"
       spreadMethod="pad"
       id="linearGradient988"><stop
         style="stop-opacity:1;stop-color:#ed1c24"
         offset="0"
         id="stop990" /><stop
         style="stop-opacity:1;stop-color:#bf1b2c"
         offset="1"
         id="stop992" /></linearGradient><clipPath
       clipPathUnits="userSpaceOnUse"
       id="clipPath1000"><path
         d="m 0,1460 590,0 L 590,0 0,0 0,1460 z"
         id="path1002" /></clipPath></defs><sodipodi:namedview
     pagecolor="#ffffff"
     bordercolor="#666666"
     borderopacity="1"
     objecttolerance="10"
     gridtolerance="10"
     guidetolerance="10"
     inkscape:pageopacity="0"
     inkscape:pageshadow="2"
     inkscape:window-width="640"
     inkscape:window-height="480"
     id="namedview4"
     showgrid="false"
     showguides="true"
     inkscape:guide-bbox="true" /><g
     id="g10"
     inkscape:groupmode="layer"
     inkscape:label="main_outlines"
     transform="matrix(1.25,0,0,-1.25,0,1825)"><g
       id="g12"><g
         id="g14"
         clip-path="url(#clipPath16)"><g
           id="g20"><g
             id="g22"><path
               d="m 0,1067 590,0 0,392.999 -590,0 L 0,1067 z"
               style="fill:url(#radialGradient24);stroke:none"
               id="path30" /></g></g></g></g><g
       id="g32"><g
         id="g34"
         clip-path="url(#clipPath36)"><g
           id="g40"><g
             id="g42"><path
               d="m 0,427 590,0 0,247 -590,0 0,-247 z"
               style="fill:url(#radialGradient44);stroke:none"
               id="path50" /></g></g></g></g><path
       d="m 0,674 590,0 0,393 -590,0 0,-393 z"
       style="fill:#252336;fill-opacity:1;fill-rule:nonzero;stroke:none"
       id="path52" /><path
       d="m 0,197 590,0 0,230 -590,0 0,-230 z"
       style="fill:#231f20;fill-opacity:1;fill-rule:nonzero;stroke:none"
       id="path54" /><g
       id="g56"><g
         id="g58"
         clip-path="url(#clipPath60)"><g
           id="g64"
           transform="translate(185.4766,1209.7607)" /><g
           id="g68"
           transform="translate(189.1479,1209.7607)" /><g
           id="g72"
           transform="translate(242.4771,1200.75)" /><g
           id="g76"
           transform="translate(263.835,1174.3857)" /><g
           id="g84"
           transform="translate(374.6328,1185.5986)" /><g
           id="g92"
           transform="translate(174.0317,1149.958)" /><g
           id="g100"
           transform="translate(189.998,1160.0811)" /><g
           id="g104"
           transform="translate(201.2642,1148.666)" /><g
           id="g108"
           transform="translate(213.356,1149.5557)" /><g
           id="g112"
           transform="translate(222.9272,1148.666)" /><g
           id="g116"
           transform="translate(229.4062,1160.0811)" /><g
           id="g122"
           transform="translate(246.9824,1147.9883)" /><g
           id="g126"
           transform="translate(255.2197,1153.833)" /><g
           id="g130"
           transform="translate(268.9209,1160.251)" /><g
           id="g134"
           transform="translate(276.9463,1153.833)" /><g
           id="g138"
           transform="translate(285.6499,1157.9629)" /><g
           id="g142"
           transform="translate(296.2168,1147.9883)" /><g
           id="g148"
           transform="translate(313.8145,1150.7832)" /><g
           id="g152"
           transform="translate(318.4717,1153.833)" /><g
           id="g156"
           transform="translate(327.9805,1160.251)" /><g
           id="g160"
           transform="translate(341.4268,1147.2041)" /><g
           id="g164"
           transform="translate(354.0684,1157.9629)" /><g
           id="g168"
           transform="translate(363.4922,1153.833)" /><g
           id="g172"
           transform="translate(372.1953,1157.9629)" /><g
           id="g176"
           transform="translate(380.709,1149.958)" /><g
           id="g182"
           transform="translate(395.2773,1157.9629)" /><g
           id="g186"
           transform="translate(286.6841,561.4111)"><path
             d="m 0,0 c -0.245,-0.49 -0.655,-1.127 -1.231,-1.913 -0.577,-0.786 -1.189,-1.564 -1.835,-2.332 -0.647,-0.769 -1.275,-1.433 -1.886,-1.991 -0.612,-0.56 -1.057,-0.839 -1.337,-0.839 l -16.14,0 -2.987,-8.228 4.979,4.822 12.104,0 -7.493,-7.075 -10.428,0 -1.153,-3.144 20.07,0 c -0.035,-0.071 -0.122,-0.219 -0.262,-0.446 -0.14,-0.227 -0.28,-0.462 -0.419,-0.707 -0.14,-0.245 -0.28,-0.471 -0.419,-0.681 -0.14,-0.209 -0.228,-0.332 -0.262,-0.366 -0.315,-0.42 -0.743,-0.91 -1.284,-1.468 -0.542,-0.56 -1.075,-1.093 -1.599,-1.599 -0.523,-0.507 -0.987,-0.934 -1.388,-1.283 -0.402,-0.35 -0.621,-0.524 -0.655,-0.524 l -26.359,0 L -29.871,0 0,0 z"
             style="fill:#ed1c24;fill-opacity:1;fill-rule:nonzero;stroke:none"
             id="path188" /></g><g
           id="g190"
           transform="translate(289.5659,561.4111)"><path
             d="M 0,0 12.682,0 15.668,-15.617 21.381,0 l 9.957,0 -10.115,-27.774 -12.681,0 -2.935,15.616 -5.659,-15.616 -10.062,0 L 0,0 z"
             style="fill:#ed1c24;fill-opacity:1;fill-rule:nonzero;stroke:none"
             id="path192" /></g><g
           id="g194"
           transform="translate(331.4365,554.3359)"><path
             d="m 0,0 -4.979,-13.625 1.363,0 c 0.943,0 1.973,0.184 3.093,0.551 1.117,0.366 2.217,0.846 3.3,1.44 1.083,0.594 2.087,1.267 3.014,2.018 0.925,0.751 1.65,1.511 2.175,2.28 0.209,0.279 0.445,0.594 0.707,0.943 0.262,0.349 0.479,0.75 0.655,1.206 0.21,0.558 0.419,1.1 0.629,1.624 0.209,0.524 0.314,1.013 0.314,1.467 0,0.594 -0.13,1.092 -0.393,1.493 C 9.616,-0.201 9.152,0 8.489,0 L 0,0 z m 17.87,-8.175 c -1.503,-2.271 -3.014,-4.201 -4.533,-5.79 -1.52,-1.591 -3.162,-2.883 -4.926,-3.878 -1.765,-0.996 -3.704,-1.721 -5.817,-2.175 -2.115,-0.455 -4.532,-0.681 -7.258,-0.681 l -13.048,0 10.113,27.774 22.796,0 c 2.096,0 3.616,-0.577 4.56,-1.729 0.942,-1.154 1.414,-2.62 1.414,-4.403 0,-1.362 -0.279,-2.855 -0.838,-4.48 -0.56,-1.624 -1.381,-3.17 -2.463,-4.638"
             style="fill:#ed1c24;fill-opacity:1;fill-rule:nonzero;stroke:none"
             id="path196" /></g><g
           id="g198"
           transform="translate(348.2051,533.6367)"><path
             d="m 0,0 10.113,27.774 10.01,0 -7.547,-20.7 16.612,0 c 0.035,0 -0.166,-0.297 -0.602,-0.89 C 28.148,5.589 27.599,4.899 26.936,4.113 26.271,3.328 25.572,2.542 24.839,1.756 24.105,0.97 23.494,0.384 23.005,0 L 0,0 z"
             style="fill:#231f20;fill-opacity:1;fill-rule:nonzero;stroke:none"
             id="path200" /></g><g
           id="g202"
           transform="translate(417.5352,561.4111)"><path
             d="m 0,0 c -0.244,-0.49 -0.654,-1.127 -1.231,-1.913 -0.577,-0.786 -1.188,-1.564 -1.834,-2.332 -0.647,-0.769 -1.276,-1.433 -1.887,-1.991 -0.611,-0.56 -1.057,-0.839 -1.336,-0.839 l -16.141,0 -2.987,-8.228 4.979,4.822 12.105,0 -7.493,-7.075 -10.429,0 -1.153,-3.144 20.071,0 c -0.035,-0.071 -0.123,-0.219 -0.263,-0.446 -0.139,-0.227 -0.279,-0.462 -0.419,-0.707 -0.139,-0.245 -0.28,-0.471 -0.419,-0.681 -0.14,-0.209 -0.227,-0.332 -0.262,-0.366 -0.314,-0.42 -0.742,-0.91 -1.283,-1.468 -0.542,-0.56 -1.075,-1.093 -1.599,-1.599 -0.524,-0.507 -0.987,-0.934 -1.389,-1.283 -0.402,-0.35 -0.62,-0.524 -0.655,-0.524 l -26.358,0 L -29.87,0 0,0 z"
             style="fill:#231f20;fill-opacity:1;fill-rule:nonzero;stroke:none"
             id="path204" /></g><g
           id="g206"
           transform="translate(435.1953,542.4404)"><path
             d="m 0,0 0,0.314 c 0,0.28 -0.053,0.568 -0.157,0.866 -0.106,0.296 -0.298,0.445 -0.576,0.445 l -10.482,0 c -1.048,0 -1.991,0.253 -2.83,0.76 -0.838,0.506 -1.563,1.152 -2.174,1.938 -0.612,0.786 -1.075,1.652 -1.389,2.594 -0.314,0.943 -0.471,1.869 -0.471,2.778 0,0.838 0.243,1.789 0.733,2.856 0.489,1.065 1.117,2.078 1.887,3.039 0.768,0.961 1.642,1.764 2.62,2.411 0.978,0.645 1.956,0.97 2.935,0.97 l 26.725,0 C 16.018,17.782 15.101,16.594 14.07,15.407 13.039,14.219 11.896,13.03 10.638,11.844 l -17.293,0 c -0.385,0 -0.717,-0.263 -0.996,-0.786 C -7.932,10.533 -8.07,10.114 -8.07,9.8 l 0,-0.262 c 0,-0.035 0.069,-0.114 0.21,-0.236 0.138,-0.123 0.243,-0.219 0.314,-0.288 0.139,-0.14 0.34,-0.272 0.603,-0.394 0.261,-0.122 0.41,-0.182 0.445,-0.182 l 9.956,0 C 4.611,8.438 5.589,8.166 6.393,7.625 7.196,7.083 7.852,6.401 8.358,5.581 8.864,4.76 9.231,3.878 9.459,2.935 9.686,1.991 9.799,1.118 9.799,0.314 L 9.799,0 C 9.799,-0.909 9.59,-1.878 9.171,-2.908 8.751,-3.939 8.201,-4.892 7.52,-5.765 6.839,-6.638 6.053,-7.362 5.161,-7.939 4.271,-8.516 3.354,-8.804 2.41,-8.804 l -26.725,0 c 0.173,0.349 0.532,0.908 1.074,1.677 0.541,0.769 1.117,1.546 1.729,2.332 0.611,0.786 1.179,1.484 1.703,2.097 0.524,0.61 0.838,0.917 0.944,0.917 l 17.817,0 c 0.524,0 0.829,0.157 0.917,0.471 C -0.044,-0.995 0,-0.664 0,-0.314 L 0,0 z"
             style="fill:#231f20;fill-opacity:1;fill-rule:nonzero;stroke:none"
             id="path208" /></g><g
           id="g210"
           transform="translate(469.7812,542.4404)"><path
             d="m 0,0 0,0.314 c 0,0.28 -0.053,0.568 -0.157,0.866 -0.106,0.296 -0.298,0.445 -0.576,0.445 l -10.482,0 c -1.048,0 -1.991,0.253 -2.83,0.76 -0.838,0.506 -1.563,1.152 -2.174,1.938 -0.612,0.786 -1.075,1.652 -1.389,2.594 -0.314,0.943 -0.471,1.869 -0.471,2.778 0,0.838 0.243,1.789 0.733,2.856 0.489,1.065 1.117,2.078 1.887,3.039 0.768,0.961 1.642,1.764 2.62,2.411 0.978,0.645 1.956,0.97 2.935,0.97 l 26.725,0 C 16.018,17.782 15.101,16.594 14.07,15.407 13.039,14.219 11.896,13.03 10.638,11.844 l -17.293,0 c -0.385,0 -0.717,-0.263 -0.996,-0.786 C -7.932,10.533 -8.07,10.114 -8.07,9.8 l 0,-0.262 c 0,-0.035 0.069,-0.114 0.21,-0.236 0.138,-0.123 0.243,-0.219 0.314,-0.288 0.139,-0.14 0.34,-0.272 0.603,-0.394 0.261,-0.122 0.41,-0.182 0.445,-0.182 l 9.956,0 C 4.611,8.438 5.589,8.166 6.393,7.625 7.196,7.083 7.852,6.401 8.358,5.581 8.864,4.76 9.231,3.878 9.459,2.935 9.686,1.991 9.799,1.118 9.799,0.314 L 9.799,0 C 9.799,-0.909 9.59,-1.878 9.171,-2.908 8.751,-3.939 8.201,-4.892 7.52,-5.765 6.839,-6.638 6.053,-7.362 5.161,-7.939 4.271,-8.516 3.354,-8.804 2.41,-8.804 l -26.725,0 c 0.173,0.349 0.532,0.908 1.074,1.677 0.541,0.769 1.117,1.546 1.729,2.332 0.611,0.786 1.179,1.484 1.703,2.097 0.524,0.61 0.838,0.917 0.944,0.917 l 17.817,0 c 0.524,0 0.829,0.157 0.917,0.471 C -0.044,-0.995 0,-0.664 0,-0.314 L 0,0 z"
             style="fill:#231f20;fill-opacity:1;fill-rule:nonzero;stroke:none"
             id="path212" /></g><g
           id="g214"
           transform="translate(278.2529,512.5342)"><path
             d="M 0,0 1.763,0 0.881,5.888 0,0 z m 4.175,-3.692 -1.846,0 -0.316,2.112 -2.246,0 -0.316,-2.112 -1.68,0 1.863,11.642 2.678,0 1.863,-11.642 z"
             style="fill:#231f20;fill-opacity:1;fill-rule:nonzero;stroke:none"
             id="path216" /></g><g
           id="g218"
           transform="translate(285.7344,520.4844)"><path
             d="m 0,0 0,-8.981 c 0,-0.832 0.366,-1.131 0.948,-1.131 0.582,0 0.948,0.299 0.948,1.131 l 0,8.981 1.73,0 0,-8.865 c 0,-1.863 -0.932,-2.927 -2.728,-2.927 -1.796,0 -2.728,1.064 -2.728,2.927 L -1.83,0 0,0 z"
             style="fill:#231f20;fill-opacity:1;fill-rule:nonzero;stroke:none"
             id="path220" /></g><g
           id="g222"
           transform="translate(290.7881,520.4844)"><path
             d="m 0,0 5.654,0 0,-1.663 -1.912,0 0,-9.98 -1.829,0 0,9.98 L 0,-1.663 0,0 z"
             style="fill:#231f20;fill-opacity:1;fill-rule:nonzero;stroke:none"
             id="path224" /></g><g
           id="g226"
           transform="translate(299.6338,511.5195)"><path
             d="m 0,0 c 0,-0.832 0.365,-1.147 0.947,-1.147 0.583,0 0.949,0.315 0.949,1.147 l 0,6.287 C 1.896,7.118 1.53,7.435 0.947,7.435 0.365,7.435 0,7.118 0,6.287 L 0,0 z m -1.83,6.171 c 0,1.862 0.981,2.927 2.777,2.927 1.797,0 2.779,-1.065 2.779,-2.927 l 0,-6.055 c 0,-1.862 -0.982,-2.927 -2.779,-2.927 -1.796,0 -2.777,1.065 -2.777,2.927 l 0,6.055 z"
             style="fill:#231f20;fill-opacity:1;fill-rule:nonzero;stroke:none"
             id="path228" /></g><g
           id="g230"
           transform="translate(309.1279,512.2178)"><path
             d="m 0,0 1.247,8.267 2.545,0 0,-11.643 -1.729,0 0,8.35 -1.264,-8.35 -1.731,0 -1.364,8.232 0,-8.232 -1.597,0 0,11.643 2.546,0 L 0,0 z"
             style="fill:#231f20;fill-opacity:1;fill-rule:nonzero;stroke:none"
             id="path232" /></g><g
           id="g234"
           transform="translate(316.6416,511.5195)"><path
             d="m 0,0 c 0,-0.832 0.366,-1.147 0.948,-1.147 0.582,0 0.948,0.315 0.948,1.147 l 0,6.287 C 1.896,7.118 1.53,7.435 0.948,7.435 0.366,7.435 0,7.118 0,6.287 L 0,0 z m -1.829,6.171 c 0,1.862 0.981,2.927 2.777,2.927 1.797,0 2.778,-1.065 2.778,-2.927 l 0,-6.055 c 0,-1.862 -0.981,-2.927 -2.778,-2.927 -1.796,0 -2.777,1.065 -2.777,2.927 l 0,6.055 z"
             style="fill:#231f20;fill-opacity:1;fill-rule:nonzero;stroke:none"
             id="path236" /></g><g
           id="g238"
           transform="translate(321.7285,520.4844)"><path
             d="m 0,0 5.655,0 0,-1.663 -1.913,0 0,-9.98 -1.829,0 0,9.98 L 0,-1.663 0,0 z"
             style="fill:#231f20;fill-opacity:1;fill-rule:nonzero;stroke:none"
             id="path240" /></g><path
           d="m 328.894,520.484 1.83,0 0,-11.643 -1.83,0 0,11.643 z"
           style="fill:#231f20;fill-opacity:1;fill-rule:nonzero;stroke:none"
           id="path242" /><g
           id="g244"
           transform="translate(335.5283,510.9873)"><path
             d="m 0,0 1.397,9.497 1.68,0 -1.796,-11.643 -2.727,0 -1.797,11.643 1.847,0 L 0,0 z"
             style="fill:#231f20;fill-opacity:1;fill-rule:nonzero;stroke:none"
             id="path246" /></g><g
           id="g248"
           transform="translate(341.9961,515.5781)"><path
             d="m 0,0 2.511,0 0,-1.663 -2.511,0 0,-3.41 3.16,0 0,-1.663 -4.99,0 0,11.642 4.99,0 0,-1.663 L 0,3.243 0,0 z"
             style="fill:#231f20;fill-opacity:1;fill-rule:nonzero;stroke:none"
             id="path250" /></g><g
           id="g252"
           transform="translate(352.7529,520.6172)"><path
             d="m 0,0 c 1.779,0 2.694,-1.064 2.694,-2.927 l 0,-0.366 -1.729,0 0,0.482 c 0,0.832 -0.333,1.148 -0.915,1.148 -0.582,0 -0.915,-0.316 -0.915,-1.148 0,-2.395 3.576,-2.843 3.576,-6.17 0,-1.863 -0.932,-2.927 -2.728,-2.927 -1.796,0 -2.727,1.064 -2.727,2.927 l 0,0.715 1.729,0 0,-0.832 c 0,-0.832 0.367,-1.131 0.949,-1.131 0.582,0 0.948,0.299 0.948,1.131 0,2.396 -3.576,2.844 -3.576,6.171 C -2.694,-1.064 -1.779,0 0,0"
             style="fill:#231f20;fill-opacity:1;fill-rule:nonzero;stroke:none"
             id="path254" /></g><g
           id="g256"
           transform="translate(359.0537,515.5781)"><path
             d="m 0,0 2.511,0 0,-1.663 -2.511,0 0,-3.41 3.16,0 0,-1.663 -4.99,0 0,11.642 4.99,0 0,-1.663 L 0,3.243 0,0 z"
             style="fill:#231f20;fill-opacity:1;fill-rule:nonzero;stroke:none"
             id="path258" /></g><g
           id="g260"
           transform="translate(365.8877,518.8213)"><path
             d="m 0,0 0,-3.576 0.715,0 c 0.681,0 1.097,0.3 1.097,1.23 l 0,1.148 C 1.812,-0.366 1.53,0 0.881,0 L 0,0 z m 1.995,-9.979 c -0.099,0.299 -0.166,0.482 -0.166,1.43 l 0,1.829 c 0,1.081 -0.366,1.481 -1.197,1.481 l -0.632,0 0,-4.74 -1.83,0 0,11.642 2.761,0 c 1.896,0 2.712,-0.882 2.712,-2.678 l 0,-0.915 c 0,-1.197 -0.383,-1.979 -1.199,-2.361 0.915,-0.383 1.215,-1.265 1.215,-2.479 l 0,-1.795 c 0,-0.566 0.017,-0.982 0.199,-1.414 l -1.863,0 z"
             style="fill:#231f20;fill-opacity:1;fill-rule:nonzero;stroke:none"
             id="path262" /></g><g
           id="g264"
           transform="translate(374.1836,510.9873)"><path
             d="m 0,0 1.397,9.497 1.68,0 -1.796,-11.643 -2.727,0 -1.797,11.643 1.847,0 L 0,0 z"
             style="fill:#231f20;fill-opacity:1;fill-rule:nonzero;stroke:none"
             id="path266" /></g><path
           d="m 378.821,520.484 1.83,0 0,-11.643 -1.83,0 0,11.643 z"
           style="fill:#231f20;fill-opacity:1;fill-rule:nonzero;stroke:none"
           id="path268" /><g
           id="g270"
           transform="translate(388,513.1826)"><path
             d="m 0,0 0,-1.547 c 0,-1.862 -0.932,-2.927 -2.728,-2.927 -1.795,0 -2.727,1.065 -2.727,2.927 l 0,6.055 c 0,1.862 0.932,2.927 2.727,2.927 C -0.932,7.435 0,6.37 0,4.508 l 0,-1.132 -1.729,0 0,1.248 c 0,0.831 -0.367,1.147 -0.949,1.147 -0.582,0 -0.948,-0.316 -0.948,-1.147 l 0,-6.287 c 0,-0.832 0.366,-1.131 0.948,-1.131 0.582,0 0.949,0.299 0.949,1.131 L -1.729,0 0,0 z"
             style="fill:#231f20;fill-opacity:1;fill-rule:nonzero;stroke:none"
             id="path272" /></g><g
           id="g274"
           transform="translate(391.6572,515.5781)"><path
             d="m 0,0 2.511,0 0,-1.663 -2.511,0 0,-3.41 3.16,0 0,-1.663 -4.99,0 0,11.642 4.99,0 0,-1.663 L 0,3.243 0,0 z"
             style="fill:#231f20;fill-opacity:1;fill-rule:nonzero;stroke:none"
             id="path276" /></g><g
           id="g278"
           transform="translate(399.1221,520.6172)"><path
             d="m 0,0 c 1.779,0 2.694,-1.064 2.694,-2.927 l 0,-0.366 -1.729,0 0,0.482 c 0,0.832 -0.333,1.148 -0.915,1.148 -0.582,0 -0.915,-0.316 -0.915,-1.148 0,-2.395 3.576,-2.843 3.576,-6.17 0,-1.863 -0.932,-2.927 -2.728,-2.927 -1.796,0 -2.727,1.064 -2.727,2.927 l 0,0.715 1.729,0 0,-0.832 c 0,-0.832 0.367,-1.131 0.949,-1.131 0.582,0 0.948,0.299 0.948,1.131 0,2.396 -3.576,2.844 -3.576,6.171 C -2.694,-1.064 -1.779,0 0,0"
             style="fill:#231f20;fill-opacity:1;fill-rule:nonzero;stroke:none"
             id="path280" /></g><g
           id="g282"
           transform="translate(409.6797,510.3721)"><path
             d="m 0,0 c 0.549,0 0.914,0.282 0.947,1.015 l 0,2.694 -0.698,0 c -0.832,0 -1.197,-0.399 -1.197,-1.48 l 0,-1.082 C -0.948,0.315 -0.583,0 0,0 m -1.514,4.624 c -0.865,0.365 -1.264,1.147 -1.264,2.395 l 0,0.215 c 0,1.864 0.898,2.878 2.727,2.878 l 2.096,0 0,-1.663 -2.063,0 c -0.582,0 -0.93,-0.3 -0.93,-1.131 l 0,-0.715 c 0,-0.931 0.415,-1.231 1.097,-1.231 l 0.798,0 0,1.297 1.83,0 0,-1.297 0.483,0 0,-1.663 -0.483,0 0,-3.825 c 0,-0.566 0.017,-0.982 0.2,-1.414 l -1.863,0 C 1.03,-1.298 0.98,-1.131 0.947,-0.615 0.632,-1.298 0.066,-1.663 -0.749,-1.663 c -1.347,0 -2.029,0.948 -2.029,2.661 l 0,1.181 c 0,1.18 0.366,2.046 1.264,2.445"
             style="fill:#231f20;fill-opacity:1;fill-rule:nonzero;stroke:none"
             id="path284" /></g><g
           id="g286"
           transform="translate(419.6045,518.8213)"><path
             d="m 0,0 0,-3.576 0.715,0 c 0.681,0 1.097,0.3 1.097,1.23 l 0,1.148 C 1.812,-0.366 1.53,0 0.881,0 L 0,0 z m 1.995,-9.979 c -0.099,0.299 -0.166,0.482 -0.166,1.43 l 0,1.829 c 0,1.081 -0.366,1.481 -1.197,1.481 l -0.632,0 0,-4.74 -1.83,0 0,11.642 2.761,0 c 1.896,0 2.712,-0.882 2.712,-2.678 l 0,-0.915 c 0,-1.197 -0.383,-1.979 -1.199,-2.361 0.915,-0.383 1.215,-1.265 1.215,-2.479 l 0,-1.795 c 0,-0.566 0.017,-0.982 0.199,-1.414 l -1.863,0 z"
             style="fill:#231f20;fill-opacity:1;fill-rule:nonzero;stroke:none"
             id="path288" /></g><g
           id="g290"
           transform="translate(427.0029,515.5781)"><path
             d="m 0,0 2.511,0 0,-1.663 -2.511,0 0,-3.41 3.16,0 0,-1.663 -4.99,0 0,11.642 4.99,0 0,-1.663 L 0,3.243 0,0 z"
             style="fill:#231f20;fill-opacity:1;fill-rule:nonzero;stroke:none"
             id="path292" /></g><g
           id="g294"
           transform="translate(433.8369,518.8213)"><path
             d="m 0,0 0,-3.942 0.864,0 c 0.582,0 0.899,0.266 0.899,1.097 l 0,1.747 C 1.763,-0.267 1.446,0 0.864,0 L 0,0 z m 3.592,-1.215 0,-1.513 c 0,-1.863 -0.898,-2.877 -2.728,-2.877 l -0.864,0 0,-4.374 -1.83,0 0,11.642 2.694,0 c 1.83,0 2.728,-1.015 2.728,-2.878"
             style="fill:#231f20;fill-opacity:1;fill-rule:nonzero;stroke:none"
             id="path296" /></g><g
           id="g298"
           transform="translate(440.5205,512.5342)"><path
             d="M 0,0 1.763,0 0.881,5.888 0,0 z m 4.174,-3.692 -1.846,0 -0.316,2.112 -2.245,0 -0.317,-2.112 -1.679,0 1.863,11.642 2.678,0 1.862,-11.642 z"
             style="fill:#231f20;fill-opacity:1;fill-rule:nonzero;stroke:none"
             id="path300" /></g><path
           d="m 446.255,520.484 1.83,0 0,-11.643 -1.83,0 0,11.643 z"
           style="fill:#231f20;fill-opacity:1;fill-rule:nonzero;stroke:none"
           id="path302" /><g
           id="g304"
           transform="translate(451.959,518.8213)"><path
             d="m 0,0 0,-3.576 0.715,0 c 0.681,0 1.097,0.3 1.097,1.23 l 0,1.148 C 1.812,-0.366 1.53,0 0.881,0 L 0,0 z m 1.995,-9.979 c -0.099,0.299 -0.166,0.482 -0.166,1.43 l 0,1.829 c 0,1.081 -0.366,1.481 -1.197,1.481 l -0.632,0 0,-4.74 -1.83,0 0,11.642 2.761,0 c 1.896,0 2.712,-0.882 2.712,-2.678 l 0,-0.915 c 0,-1.197 -0.383,-1.979 -1.199,-2.361 0.915,-0.383 1.215,-1.265 1.215,-2.479 l 0,-1.795 c 0,-0.566 0.017,-0.982 0.199,-1.414 l -1.863,0 z"
             style="fill:#231f20;fill-opacity:1;fill-rule:nonzero;stroke:none"
             id="path306" /></g><g
           id="g308"
           transform="translate(247.1718,1324.7621)"><path
             d="m 0,0 19.028,-56.261 c 4.049,3.068 8.116,7.068 12.157,11.965 L 0.282,0.034 C 0.187,0.024 0.094,0.011 0,0"
             style="fill:#e91b2f;fill-opacity:1;fill-rule:nonzero;stroke:none"
             id="path310" /></g><g
           id="g312"
           transform="translate(334.7146,1297.6216)"><path
             d="M 0,0 16.102,18.034 38.484,-0.394 63.104,43.682 35.53,18.474 21.789,43.015 30.759,43.048 39.138,57.706 31.806,71.7 12.173,71.458 4.918,57.159 -32.8,66.393 -59.431,30.786 c 4.788,4.29 20.146,15.476 23.296,18.299 l 25.98,-7.601 c -8.594,-18.26 -16.026,-33.071 -25.013,-47.877 -12.406,-20.438 -27.906,-38.739 -47.053,-41.538 -28.002,-4.608 -53.132,20.369 -48.727,48.008 4.35,27.292 32.968,44.989 61.251,37.306 -33.544,12.621 -70.729,-7.602 -76.134,-41.507 -4.638,-29.099 16.437,-56.278 47.072,-60.707 7.246,-1.048 14.372,-0.714 21.1,0.769 7.842,1.236 16.477,4.263 25.537,10.164 4.237,2.76 8.567,6.152 12.954,10.283 6.096,5.741 12.288,11.486 18.5,20.392 l 0.146,0.011 45.129,-6.08 c -8.264,-15.194 -25.945,-24.51 -44.728,-21.794 -3.226,0.466 -6.308,1.271 -9.226,2.352 l -12.182,-12.832 c 1.079,-0.599 2.188,-1.155 3.316,-1.685 4.941,-2.321 10.325,-3.985 16.065,-4.814 C 14.265,-73.33 45.82,-43.589 40.306,-8.842 27.076,-5.95 12.345,-3.123 0,0"
             style="fill:#ed1c24;fill-opacity:1;fill-rule:nonzero;stroke:none"
             id="path314" /></g><text
           xml:space="preserve"
           style="font-size:24px;font-style:normal;font-variant:normal;font-weight:normal;font-stretch:normal;line-height:125%;letter-spacing:0px;word-spacing:0px;fill:#000000;fill-opacity:1;stroke:none;font-family:DejaVu Sans;-inkscape-font-specification:DejaVu Sans"
           x="182.65446"
           y="416.30875"
           id="text4241"
           sodipodi:linespacing="125%"
           transform="matrix(0.8,0,0,-0.8,0,1460)"><tspan
             sodipodi:role="line"
             id="tspan4243"
             x="182.65446"
             y="416.30875" /></text>
<text
           xml:space="preserve"
           style="font-size:32px;font-style:normal;font-variant:normal;font-weight:normal;font-stretch:normal;line-height:125%;letter-spacing:0px;word-spacing:0px;fill:#000000;fill-opacity:1;stroke:none;font-family:DejaVu Sans;-inkscape-font-specification:DejaVu Sans"
           x="213.51389"
           y="387.1174"
           id="text4245"
           sodipodi:linespacing="125%"
           transform="matrix(0.8,0,0,-0.8,0,1460)"><tspan
             sodipodi:role="line"
             id="tspan4247"></tspan></text>
<text
           xml:space="preserve"
           style="font-size:25.60000038px;font-style:normal;font-variant:normal;font-weight:normal;font-stretch:normal;line-height:125%;letter-spacing:0px;word-spacing:0px;fill:#000000;fill-opacity:1;stroke:none;font-family:DejaVu Sans;-inkscape-font-specification:DejaVu Sans"
           x="166.80772"
           y="-1156.9784"
           id="text4253"
           sodipodi:linespacing="125%"
           transform="scale(1,-1)"><tspan
             sodipodi:role="line"
             id="tspan4255"
             x="166.80772"
             y="-1156.9784"><tspan
               style="font-weight:bold"
               id="tspan4257"><tspan
                 style="font-size:16px"
                 id="tspan4259">Your priority our delivery </tspan></tspan></tspan></text>
<text
           transform="scale(1,-1)"
           sodipodi:linespacing="125%"
           id="text6052"
           y="-1156.9784"
           x="166.80772"
           style="font-size:25.60000038px;font-style:normal;font-variant:normal;font-weight:normal;font-stretch:normal;line-height:125%;letter-spacing:0px;word-spacing:0px;fill:#000000;fill-opacity:1;stroke:none;font-family:DejaVu Sans;-inkscape-font-specification:DejaVu Sans"
           xml:space="preserve"><tspan
             y="-1156.9784"
             x="166.80772"
             id="tspan6054"
             sodipodi:role="line"><tspan
               id="tspan6056"
               style="font-weight:bold"><tspan
                 id="tspan6058"
                 style="font-size:16px">Your priority our delivery </tspan></tspan></tspan></text>
</g></g><g
       id="g316"><g
         id="g318"
         clip-path="url(#clipPath320)"><g
           id="g324"><g
             id="g326"><path
               d="m 292.315,1268.793 7.44,-10.796 c 5.992,5.202 14.485,16.564 14.485,16.564 l 0,0 -20.684,2.477 -1.241,-8.245 z"
               style="fill:url(#linearGradient328);stroke:none"
               id="path334" /></g></g></g></g><g
       id="g336"><g
         id="g338"
         clip-path="url(#clipPath340)"><g
           id="g344"><g
             id="g346"><path
               d="m 190.219,1298.724 0.122,-0.094 c -3.964,-29.053 16.579,-56.237 57.604,-49.635 l 0,0 c -28.135,-0.33 -47.829,23.81 -44.162,48.018 l 0,0 c 4.14,27.324 32.621,45.242 60.963,37.776 l 0,0 c -6.721,2.47 -13.582,3.628 -20.292,3.628 l 0,0 c -24.836,0 -47.665,-15.85 -54.235,-39.693"
               style="fill:url(#linearGradient348);stroke:none"
               id="path354" /></g></g></g></g><g
       id="g356"><g
         id="g358"
         clip-path="url(#clipPath360)"><g
           id="g364"><g
             id="g366"><path
               d="m 340.462,1304.42 10.228,11.681 -19.225,17.941 8.997,-29.622 z"
               style="fill:url(#linearGradient368);stroke:none"
               id="path374" /></g></g></g></g><g
       id="g376"><g
         id="g378"
         clip-path="url(#clipPath380)"><g
           id="g384"><g
             id="g386"><path
               d="m 356.186,1341.124 8.969,0.102 -15.704,9.815 6.735,-9.917 z"
               style="fill:url(#linearGradient388);stroke:none"
               id="path394" /></g></g></g></g><g
       id="g396"><g
         id="g398"
         clip-path="url(#clipPath400)"><g
           id="g404"><g
             id="g406"><path
               d="m 298.216,1346.748 26.737,-7.538 -22.03,22.453 -4.707,-14.915 z"
               style="fill:url(#linearGradient408);stroke:none"
               id="path414" /></g></g></g></g><g
       id="g416"><g
         id="g418"
         clip-path="url(#clipPath420)"><g
           id="g424"
           transform="translate(372.5943,1267.8116)"><path
             d="M 0,0 -13.035,1.03 C -20.524,-12.997 -36.012,-22.108 -53.071,-21.49 -12.48,-27.946 0,0 0,0"
             style="fill:#ed1c24;fill-opacity:1;fill-rule:nonzero;stroke:none"
             id="path426" /></g></g></g><g
       id="g428"><g
         id="g430"
         clip-path="url(#clipPath432)"><g
           id="g436"><g
             id="g438"><path
               d="m 344.724,1252.966 c 11.779,3.313 24.177,14.723 24.177,14.723 l 0,0 -9.342,1.153 c -5.536,-10.354 -14.835,-15.876 -14.835,-15.876"
               style="fill:url(#linearGradient440);stroke:none"
               id="path446" /></g></g></g></g><g
       id="g448"><g
         id="g450"
         clip-path="url(#clipPath452)"><g
           id="g456"
           transform="translate(138.9528,552.1705)"><path
             d="m 0,0 11.908,-35.209 c 2.534,1.92 5.079,4.424 7.608,7.488 L 0.176,0.021 C 0.117,0.015 0.059,0.007 0,0"
             style="fill:#e91b2f;fill-opacity:1;fill-rule:nonzero;stroke:none"
             id="path458" /></g><g
           id="g460"
           transform="translate(193.7382,535.1856)"><path
             d="M 0,0 10.077,11.286 24.084,-0.247 39.491,27.337 22.235,11.561 13.636,26.919 19.25,26.94 24.493,36.113 19.905,44.871 7.618,44.719 3.078,35.771 -20.527,41.549 -37.193,19.266 c 2.997,2.685 12.608,9.686 14.579,11.452 L -6.355,25.961 C -11.733,14.534 -16.384,5.265 -22.008,-4 c -7.764,-12.791 -17.465,-24.244 -29.447,-25.996 -17.524,-2.883 -33.251,12.748 -30.494,30.044 2.723,17.08 20.632,28.155 38.332,23.347 -20.992,7.898 -44.263,-4.757 -47.646,-25.976 -2.902,-18.21 10.286,-35.219 29.458,-37.991 4.535,-0.656 8.995,-0.447 13.205,0.481 4.908,0.774 10.311,2.668 15.982,6.361 2.651,1.727 5.361,3.85 8.106,6.435 3.815,3.593 7.69,7.189 11.578,12.762 l 0.091,0.006 28.242,-3.804 C 10.228,-27.84 -0.838,-33.67 -12.592,-31.97 c -2.019,0.292 -3.947,0.795 -5.774,1.472 l -7.623,-8.031 c 0.675,-0.374 1.369,-0.723 2.075,-1.054 3.092,-1.453 6.461,-2.494 10.054,-3.013 22.787,-3.295 42.535,15.318 39.084,37.063 C 16.945,-3.724 7.726,-1.954 0,0"
             style="fill:#ed1c24;fill-opacity:1;fill-rule:nonzero;stroke:none"
             id="path462" /></g></g></g><g
       id="g464"><g
         id="g466"
         clip-path="url(#clipPath468)"><g
           id="g472"><g
             id="g474"><path
               d="m 167.205,517.144 4.654,-6.756 c 3.751,3.255 9.065,10.366 9.065,10.366 l 0,0 -12.944,1.55 -0.775,-5.16 z"
               style="fill:url(#linearGradient476);stroke:none"
               id="path482" /></g></g></g></g><g
       id="g484"><g
         id="g486"
         clip-path="url(#clipPath488)"><g
           id="g492"><g
             id="g494"><path
               d="m 103.311,535.875 0.076,-0.058 c -2.48,-18.182 10.376,-35.194 36.05,-31.063 l 0,0 c -17.608,-0.206 -29.932,14.901 -27.637,30.051 l 0,0 c 2.591,17.099 20.414,28.312 38.151,23.64 l 0,0 c -4.206,1.546 -8.5,2.271 -12.699,2.271 l 0,0 c -15.542,10e-4 -29.829,-9.919 -33.941,-24.841"
               style="fill:url(#linearGradient496);stroke:none"
               id="path502" /></g></g></g></g><g
       id="g504"><g
         id="g506"
         clip-path="url(#clipPath508)"><g
           id="g512"><g
             id="g514"><path
               d="m 197.335,539.441 6.402,7.309 -12.033,11.227 5.631,-18.536 z"
               style="fill:url(#linearGradient516);stroke:none"
               id="path522" /></g></g></g></g><g
       id="g524"><g
         id="g526"
         clip-path="url(#clipPath528)"><g
           id="g532"><g
             id="g534"><path
               d="m 207.175,562.41 5.613,0.064 -9.828,6.142 4.215,-6.206 z"
               style="fill:url(#linearGradient536);stroke:none"
               id="path542" /></g></g></g></g><g
       id="g544"><g
         id="g546"
         clip-path="url(#clipPath548)"><g
           id="g552"><g
             id="g554"><path
               d="m 170.896,565.93 16.733,-4.718 -13.787,14.052 -2.946,-9.334 z"
               style="fill:url(#linearGradient556);stroke:none"
               id="path562" /></g></g></g></g><g
       id="g564"><g
         id="g566"
         clip-path="url(#clipPath568)"><g
           id="g572"
           transform="translate(217.4437,516.5303)"><path
             d="M 0,0 -8.157,0.644 C -12.844,-8.134 -22.537,-13.835 -33.212,-13.449 -7.81,-17.489 0,0 0,0"
             style="fill:#ed1c24;fill-opacity:1;fill-rule:nonzero;stroke:none"
             id="path574" /></g></g></g><g
       id="g576"><g
         id="g578"
         clip-path="url(#clipPath580)"><g
           id="g584"><g
             id="g586"><path
               d="m 200.003,507.24 c 7.371,2.073 15.129,9.213 15.129,9.213 l 0,0 -5.846,0.721 c -3.465,-6.479 -9.283,-9.934 -9.283,-9.934"
               style="fill:url(#linearGradient588);stroke:none"
               id="path594" /></g></g></g></g><g
       id="g596"><g
         id="g598"
         clip-path="url(#clipPath600)"><g
           id="g604"
           transform="translate(293.8906,327.8506)"><path
             d="M 0,0 C -0.207,-0.413 -0.553,-0.95 -1.041,-1.614 -1.527,-2.277 -2.043,-2.934 -2.588,-3.582 -3.133,-4.23 -3.664,-4.791 -4.18,-5.263 -4.695,-5.734 -5.072,-5.97 -5.309,-5.97 l -13.62,0 -2.52,-6.943 4.201,4.068 10.215,0 -6.322,-5.969 -8.802,0 -0.973,-2.654 16.939,0 c -0.032,-0.059 -0.104,-0.184 -0.223,-0.376 -0.117,-0.192 -0.236,-0.391 -0.354,-0.597 -0.117,-0.206 -0.236,-0.398 -0.353,-0.575 -0.117,-0.177 -0.191,-0.281 -0.221,-0.309 -0.265,-0.355 -0.627,-0.768 -1.084,-1.238 -0.457,-0.473 -0.906,-0.922 -1.347,-1.35 -0.444,-0.428 -0.834,-0.789 -1.172,-1.083 -0.34,-0.295 -0.526,-0.442 -0.553,-0.442 l -22.246,0 L -25.208,0 0,0 z"
             style="fill:#ffffff;fill-opacity:1;fill-rule:nonzero;stroke:none"
             id="path606" /></g><g
           id="g608"
           transform="translate(296.3223,327.8506)"><path
             d="m 0,0 10.702,0 2.521,-13.179 4.82,13.179 8.403,0 -8.535,-23.438 -10.702,0 -2.477,13.178 -4.776,-13.178 -8.491,0 L 0,0 z"
             style="fill:#ffffff;fill-opacity:1;fill-rule:nonzero;stroke:none"
             id="path610" /></g><g
           id="g612"
           transform="translate(331.6562,321.8809)"><path
             d="m 0,0 -4.201,-11.498 1.15,0 c 0.796,0 1.665,0.154 2.61,0.464 0.942,0.309 1.871,0.715 2.786,1.216 0.913,0.501 1.76,1.068 2.542,1.703 0.781,0.634 1.393,1.274 1.836,1.924 0.176,0.235 0.376,0.501 0.596,0.795 0.222,0.294 0.406,0.634 0.553,1.017 0.177,0.472 0.355,0.929 0.531,1.371 0.177,0.443 0.265,0.856 0.265,1.238 0,0.501 -0.11,0.922 -0.331,1.261 C 8.115,-0.17 7.725,0 7.165,0 L 0,0 z m 15.081,-6.899 c -1.268,-1.917 -2.543,-3.545 -3.825,-4.887 -1.283,-1.342 -2.669,-2.433 -4.157,-3.273 -1.49,-0.839 -3.126,-1.452 -4.91,-1.835 -1.784,-0.383 -3.825,-0.575 -6.125,-0.575 l -11.011,0 8.535,23.439 19.237,0 c 1.77,0 3.052,-0.487 3.848,-1.459 0.796,-0.973 1.194,-2.211 1.194,-3.715 0,-1.15 -0.236,-2.41 -0.708,-3.781 -0.472,-1.371 -1.165,-2.676 -2.078,-3.914"
             style="fill:#ffffff;fill-opacity:1;fill-rule:nonzero;stroke:none"
             id="path614" /></g><g
           id="g616"
           transform="translate(345.8076,304.4121)"><path
             d="m 0,0 8.535,23.438 8.447,0 -6.369,-17.467 14.02,0 C 24.662,5.971 24.492,5.72 24.124,5.219 23.755,4.717 23.291,4.135 22.731,3.472 22.171,2.809 21.581,2.145 20.962,1.481 20.343,0.818 19.827,0.324 19.414,0 L 0,0 z"
             style="fill:#ffffff;fill-opacity:1;fill-rule:nonzero;stroke:none"
             id="path618" /></g><g
           id="g620"
           transform="translate(404.3164,327.8506)"><path
             d="M 0,0 C -0.207,-0.413 -0.553,-0.95 -1.04,-1.614 -1.526,-2.277 -2.042,-2.934 -2.587,-3.582 -3.133,-4.23 -3.664,-4.791 -4.18,-5.263 -4.695,-5.734 -5.071,-5.97 -5.308,-5.97 l -13.62,0 -2.521,-6.943 4.201,4.068 10.216,0 -6.323,-5.969 -8.801,0 -0.974,-2.654 16.939,0 c -0.031,-0.059 -0.104,-0.184 -0.222,-0.376 -0.118,-0.192 -0.236,-0.391 -0.354,-0.597 -0.118,-0.206 -0.236,-0.398 -0.353,-0.575 -0.118,-0.177 -0.192,-0.281 -0.222,-0.309 -0.264,-0.355 -0.626,-0.768 -1.083,-1.238 -0.458,-0.473 -0.907,-0.922 -1.348,-1.35 -0.443,-0.428 -0.834,-0.789 -1.172,-1.083 -0.34,-0.295 -0.525,-0.442 -0.553,-0.442 l -22.245,0 L -25.208,0 0,0 z"
             style="fill:#ffffff;fill-opacity:1;fill-rule:nonzero;stroke:none"
             id="path622" /></g><g
           id="g624"
           transform="translate(419.2197,311.8418)"><path
             d="m 0,0 0,0.266 c 0,0.235 -0.045,0.478 -0.133,0.729 -0.089,0.25 -0.251,0.376 -0.486,0.376 l -8.846,0 c -0.884,0 -1.68,0.213 -2.388,0.641 -0.708,0.427 -1.319,0.973 -1.835,1.636 -0.516,0.664 -0.907,1.393 -1.171,2.19 -0.266,0.796 -0.399,1.576 -0.399,2.344 0,0.707 0.206,1.509 0.619,2.41 0.413,0.898 0.944,1.754 1.592,2.564 0.649,0.811 1.386,1.489 2.212,2.034 0.824,0.546 1.65,0.819 2.477,0.819 l 22.553,0 C 13.517,15.007 12.743,14.004 11.874,13.002 11.004,11.999 10.038,10.996 8.977,9.994 l -14.594,0 c -0.324,0 -0.605,-0.221 -0.84,-0.663 C -6.693,8.889 -6.811,8.535 -6.811,8.27 l 0,-0.221 c 0,-0.03 0.059,-0.096 0.177,-0.199 C -6.517,7.746 -6.428,7.665 -6.369,7.606 -6.251,7.488 -6.081,7.378 -5.86,7.274 -5.639,7.171 -5.514,7.12 -5.484,7.12 l 8.402,0 C 3.892,7.12 4.716,6.892 5.395,6.435 6.072,5.978 6.626,5.402 7.054,4.71 7.48,4.017 7.79,3.272 7.982,2.477 8.174,1.681 8.27,0.943 8.27,0.266 L 8.27,0 C 8.27,-0.767 8.093,-1.585 7.738,-2.454 7.385,-3.324 6.921,-4.128 6.346,-4.864 5.771,-5.602 5.107,-6.214 4.355,-6.7 3.604,-7.187 2.83,-7.43 2.034,-7.43 l -22.555,0 c 0.148,0.294 0.45,0.767 0.907,1.415 0.457,0.649 0.943,1.305 1.46,1.968 0.515,0.664 0.995,1.253 1.437,1.77 0.443,0.515 0.707,0.773 0.796,0.773 l 15.036,0 c 0.443,0 0.7,0.133 0.774,0.399 C -0.038,-0.84 0,-0.561 0,-0.266 L 0,0 z"
             style="fill:#ffffff;fill-opacity:1;fill-rule:nonzero;stroke:none"
             id="path626" /></g><g
           id="g628"
           transform="translate(448.4072,311.8418)"><path
             d="m 0,0 0,0.266 c 0,0.235 -0.045,0.478 -0.133,0.729 -0.089,0.25 -0.251,0.376 -0.486,0.376 l -8.846,0 c -0.884,0 -1.68,0.213 -2.388,0.641 -0.708,0.427 -1.319,0.973 -1.835,1.636 -0.516,0.664 -0.907,1.393 -1.171,2.19 -0.266,0.796 -0.399,1.576 -0.399,2.344 0,0.707 0.206,1.509 0.619,2.41 0.413,0.898 0.944,1.754 1.592,2.564 0.649,0.811 1.386,1.489 2.212,2.034 0.824,0.546 1.65,0.819 2.477,0.819 l 22.553,0 C 13.517,15.007 12.743,14.004 11.874,13.002 11.004,11.999 10.038,10.996 8.977,9.994 l -14.594,0 c -0.324,0 -0.605,-0.221 -0.84,-0.663 C -6.693,8.889 -6.811,8.535 -6.811,8.27 l 0,-0.221 c 0,-0.03 0.059,-0.096 0.177,-0.199 C -6.517,7.746 -6.428,7.665 -6.369,7.606 -6.251,7.488 -6.081,7.378 -5.86,7.274 -5.639,7.171 -5.514,7.12 -5.484,7.12 l 8.402,0 C 3.892,7.12 4.716,6.892 5.395,6.435 6.072,5.978 6.626,5.402 7.054,4.71 7.48,4.017 7.79,3.272 7.982,2.477 8.174,1.681 8.27,0.943 8.27,0.266 L 8.27,0 C 8.27,-0.767 8.093,-1.585 7.738,-2.454 7.385,-3.324 6.921,-4.128 6.346,-4.864 5.771,-5.602 5.107,-6.214 4.355,-6.7 3.604,-7.187 2.83,-7.43 2.034,-7.43 l -22.555,0 c 0.148,0.294 0.45,0.767 0.907,1.415 0.457,0.649 0.943,1.305 1.46,1.968 0.515,0.664 0.995,1.253 1.437,1.77 0.443,0.515 0.707,0.773 0.796,0.773 l 15.036,0 c 0.443,0 0.7,0.133 0.774,0.399 C -0.038,-0.84 0,-0.561 0,-0.266 L 0,0 z"
             style="fill:#ffffff;fill-opacity:1;fill-rule:nonzero;stroke:none"
             id="path630" /></g><g
           id="g632"
           transform="translate(286.917,284.6943)"><path
             d="M 0,0 1.488,0 0.744,4.97 0,0 z m 3.524,-3.116 -1.558,0 -0.267,1.783 -1.895,0 -0.267,-1.783 -1.418,0 1.572,9.826 2.261,0 1.572,-9.826 z"
             style="fill:#ffffff;fill-opacity:1;fill-rule:nonzero;stroke:none"
             id="path634" /></g><g
           id="g636"
           transform="translate(293.2305,291.4043)"><path
             d="m 0,0 0,-7.58 c 0,-0.702 0.31,-0.955 0.801,-0.955 0.491,0 0.8,0.253 0.8,0.955 l 0,7.58 1.46,0 0,-7.481 c 0,-1.573 -0.787,-2.471 -2.302,-2.471 -1.517,0 -2.303,0.898 -2.303,2.471 L -1.544,0 0,0 z"
             style="fill:#ffffff;fill-opacity:1;fill-rule:nonzero;stroke:none"
             id="path638" /></g><g
           id="g640"
           transform="translate(297.4951,291.4043)"><path
             d="m 0,0 4.772,0 0,-1.403 -1.614,0 0,-8.423 -1.544,0 0,8.423 L 0,-1.403 0,0 z"
             style="fill:#ffffff;fill-opacity:1;fill-rule:nonzero;stroke:none"
             id="path642" /></g><g
           id="g644"
           transform="translate(304.9609,283.8379)"><path
             d="m 0,0 c 0,-0.701 0.309,-0.969 0.8,-0.969 0.491,0 0.801,0.268 0.801,0.969 l 0,5.307 C 1.601,6.009 1.291,6.275 0.8,6.275 0.309,6.275 0,6.009 0,5.307 L 0,0 z m -1.544,5.209 c 0,1.572 0.828,2.471 2.344,2.471 1.516,0 2.345,-0.899 2.345,-2.471 l 0,-5.11 c 0,-1.573 -0.829,-2.471 -2.345,-2.471 -1.516,0 -2.344,0.898 -2.344,2.471 l 0,5.11 z"
             style="fill:#ffffff;fill-opacity:1;fill-rule:nonzero;stroke:none"
             id="path646" /></g><g
           id="g648"
           transform="translate(312.9727,284.4277)"><path
             d="m 0,0 1.053,6.977 2.148,0 0,-9.827 -1.46,0 0,7.047 -1.067,-7.047 -1.46,0 -1.151,6.95 0,-6.95 -1.347,0 0,9.827 2.147,0 L 0,0 z"
             style="fill:#ffffff;fill-opacity:1;fill-rule:nonzero;stroke:none"
             id="path650" /></g><g
           id="g652"
           transform="translate(319.3145,283.8379)"><path
             d="m 0,0 c 0,-0.701 0.309,-0.969 0.8,-0.969 0.491,0 0.801,0.268 0.801,0.969 l 0,5.307 C 1.601,6.009 1.291,6.275 0.8,6.275 0.309,6.275 0,6.009 0,5.307 L 0,0 z m -1.544,5.209 c 0,1.572 0.828,2.471 2.344,2.471 1.516,0 2.345,-0.899 2.345,-2.471 l 0,-5.11 c 0,-1.573 -0.829,-2.471 -2.345,-2.471 -1.516,0 -2.344,0.898 -2.344,2.471 l 0,5.11 z"
             style="fill:#ffffff;fill-opacity:1;fill-rule:nonzero;stroke:none"
             id="path654" /></g><g
           id="g656"
           transform="translate(323.6064,291.4043)"><path
             d="m 0,0 4.772,0 0,-1.403 -1.614,0 0,-8.423 -1.544,0 0,8.423 L 0,-1.403 0,0 z"
             style="fill:#ffffff;fill-opacity:1;fill-rule:nonzero;stroke:none"
             id="path658" /></g><path
           d="m 329.653,291.404 1.544,0 0,-9.826 -1.544,0 0,9.826 z"
           style="fill:#ffffff;fill-opacity:1;fill-rule:nonzero;stroke:none"
           id="path660" /><g
           id="g662"
           transform="translate(335.2529,283.3887)"><path
             d="m 0,0 1.18,8.016 1.418,0 -1.517,-9.827 -2.302,0 -1.516,9.827 1.558,0 L 0,0 z"
             style="fill:#ffffff;fill-opacity:1;fill-rule:nonzero;stroke:none"
             id="path664" /></g><g
           id="g666"
           transform="translate(340.71,287.2637)"><path
             d="m 0,0 2.12,0 0,-1.404 -2.12,0 0,-2.877 2.667,0 0,-1.405 -4.211,0 0,9.827 4.211,0 0,-1.404 L 0,2.737 0,0 z"
             style="fill:#ffffff;fill-opacity:1;fill-rule:nonzero;stroke:none"
             id="path668" /></g><g
           id="g670"
           transform="translate(349.7891,291.5176)"><path
             d="m 0,0 c 1.502,0 2.273,-0.898 2.273,-2.471 l 0,-0.309 -1.46,0 0,0.407 c 0,0.702 -0.28,0.969 -0.771,0.969 -0.491,0 -0.772,-0.267 -0.772,-0.969 0,-2.022 3.018,-2.4 3.018,-5.208 0,-1.572 -0.786,-2.471 -2.303,-2.471 -1.515,0 -2.301,0.899 -2.301,2.471 l 0,0.603 1.46,0 0,-0.702 c 0,-0.701 0.308,-0.954 0.799,-0.954 0.492,0 0.8,0.253 0.8,0.954 0,2.022 -3.017,2.401 -3.017,5.209 C -2.274,-0.898 -1.503,0 0,0"
             style="fill:#ffffff;fill-opacity:1;fill-rule:nonzero;stroke:none"
             id="path672" /></g><g
           id="g674"
           transform="translate(355.1055,287.2637)"><path
             d="m 0,0 2.12,0 0,-1.404 -2.12,0 0,-2.877 2.668,0 0,-1.405 -4.212,0 0,9.827 4.212,0 0,-1.404 L 0,2.737 0,0 z"
             style="fill:#ffffff;fill-opacity:1;fill-rule:nonzero;stroke:none"
             id="path676" /></g><g
           id="g678"
           transform="translate(360.8721,290.001)"><path
             d="m 0,0 0,-3.019 0.604,0 c 0.576,0 0.926,0.253 0.926,1.04 l 0,0.968 C 1.53,-0.309 1.292,0 0.744,0 L 0,0 z M 1.685,-8.423 C 1.601,-8.17 1.544,-8.016 1.544,-7.216 l 0,1.545 c 0,0.912 -0.309,1.249 -1.01,1.249 l -0.534,0 0,-4.001 -1.544,0 0,9.826 2.33,0 c 1.601,0 2.288,-0.743 2.288,-2.259 l 0,-0.772 c 0,-1.012 -0.322,-1.671 -1.011,-1.994 0.773,-0.322 1.026,-1.066 1.026,-2.092 l 0,-1.515 c 0,-0.478 0.014,-0.829 0.168,-1.194 l -1.572,0 z"
             style="fill:#ffffff;fill-opacity:1;fill-rule:nonzero;stroke:none"
             id="path680" /></g><g
           id="g682"
           transform="translate(367.874,283.3887)"><path
             d="m 0,0 1.18,8.016 1.418,0 -1.517,-9.827 -2.302,0 -1.516,9.827 1.558,0 L 0,0 z"
             style="fill:#ffffff;fill-opacity:1;fill-rule:nonzero;stroke:none"
             id="path684" /></g><path
           d="m 371.787,291.404 1.544,0 0,-9.826 -1.544,0 0,9.826 z"
           style="fill:#ffffff;fill-opacity:1;fill-rule:nonzero;stroke:none"
           id="path686" /><g
           id="g688"
           transform="translate(379.5352,285.2422)"><path
             d="m 0,0 0,-1.306 c 0,-1.572 -0.786,-2.47 -2.303,-2.47 -1.515,0 -2.301,0.898 -2.301,2.47 l 0,5.111 c 0,1.572 0.786,2.47 2.301,2.47 C -0.786,6.275 0,5.377 0,3.805 l 0,-0.955 -1.46,0 0,1.052 c 0,0.702 -0.31,0.969 -0.801,0.969 -0.491,0 -0.8,-0.267 -0.8,-0.969 l 0,-5.306 c 0,-0.701 0.309,-0.954 0.8,-0.954 0.491,0 0.801,0.253 0.801,0.954 L -1.46,0 0,0 z"
             style="fill:#ffffff;fill-opacity:1;fill-rule:nonzero;stroke:none"
             id="path690" /></g><g
           id="g692"
           transform="translate(382.6191,287.2637)"><path
             d="m 0,0 2.12,0 0,-1.404 -2.12,0 0,-2.877 2.668,0 0,-1.405 -4.212,0 0,9.827 4.212,0 0,-1.404 L 0,2.737 0,0 z"
             style="fill:#ffffff;fill-opacity:1;fill-rule:nonzero;stroke:none"
             id="path694" /></g><g
           id="g696"
           transform="translate(388.9199,291.5176)"><path
             d="m 0,0 c 1.502,0 2.273,-0.898 2.273,-2.471 l 0,-0.309 -1.46,0 0,0.407 c 0,0.702 -0.28,0.969 -0.771,0.969 -0.491,0 -0.772,-0.267 -0.772,-0.969 0,-2.022 3.018,-2.4 3.018,-5.208 0,-1.572 -0.786,-2.471 -2.303,-2.471 -1.515,0 -2.301,0.899 -2.301,2.471 l 0,0.603 1.46,0 0,-0.702 c 0,-0.701 0.308,-0.954 0.799,-0.954 0.492,0 0.8,0.253 0.8,0.954 0,2.022 -3.017,2.401 -3.017,5.209 C -2.274,-0.898 -1.503,0 0,0"
             style="fill:#ffffff;fill-opacity:1;fill-rule:nonzero;stroke:none"
             id="path698" /></g><g
           id="g700"
           transform="translate(397.8291,282.8691)"><path
             d="m 0,0 c 0.463,0 0.772,0.239 0.8,0.856 l 0,2.275 -0.589,0 C -0.491,3.131 -0.8,2.794 -0.8,1.882 l 0,-0.913 C -0.8,0.268 -0.491,0 0,0 m -1.277,3.903 c -0.731,0.309 -1.068,0.969 -1.068,2.022 l 0,0.182 c 0,1.573 0.759,2.428 2.303,2.428 l 1.769,0 0,-1.403 -1.741,0 C -0.505,7.132 -0.8,6.879 -0.8,6.178 l 0,-0.605 c 0,-0.786 0.351,-1.038 0.926,-1.038 l 0.674,0 0,1.095 1.545,0 0,-1.095 0.406,0 0,-1.404 -0.406,0 0,-3.229 c 0,-0.477 0.013,-0.828 0.168,-1.193 l -1.573,0 C 0.87,-1.095 0.828,-0.954 0.8,-0.519 0.533,-1.095 0.056,-1.403 -0.632,-1.403 c -1.137,0 -1.713,0.799 -1.713,2.246 l 0,0.997 c 0,0.996 0.31,1.726 1.068,2.063"
             style="fill:#ffffff;fill-opacity:1;fill-rule:nonzero;stroke:none"
             id="path702" /></g><g
           id="g704"
           transform="translate(406.2041,290.001)"><path
             d="m 0,0 0,-3.019 0.604,0 c 0.576,0 0.926,0.253 0.926,1.04 l 0,0.968 C 1.53,-0.309 1.292,0 0.744,0 L 0,0 z M 1.685,-8.423 C 1.601,-8.17 1.544,-8.016 1.544,-7.216 l 0,1.545 c 0,0.912 -0.309,1.249 -1.01,1.249 l -0.534,0 0,-4.001 -1.544,0 0,9.826 2.33,0 c 1.601,0 2.288,-0.743 2.288,-2.259 l 0,-0.772 c 0,-1.012 -0.322,-1.671 -1.011,-1.994 0.773,-0.322 1.026,-1.066 1.026,-2.092 l 0,-1.515 c 0,-0.478 0.014,-0.829 0.168,-1.194 l -1.572,0 z"
             style="fill:#ffffff;fill-opacity:1;fill-rule:nonzero;stroke:none"
             id="path706" /></g><g
           id="g708"
           transform="translate(412.4482,287.2637)"><path
             d="m 0,0 2.12,0 0,-1.404 -2.12,0 0,-2.877 2.667,0 0,-1.405 -4.211,0 0,9.827 4.211,0 0,-1.404 L 0,2.737 0,0 z"
             style="fill:#ffffff;fill-opacity:1;fill-rule:nonzero;stroke:none"
             id="path710" /></g><g
           id="g712"
           transform="translate(418.2148,290.001)"><path
             d="m 0,0 0,-3.327 0.73,0 c 0.492,0 0.758,0.224 0.758,0.927 l 0,1.473 C 1.488,-0.225 1.222,0 0.73,0 L 0,0 z m 3.032,-1.024 0,-1.278 C 3.032,-3.874 2.274,-4.73 0.73,-4.73 l -0.73,0 0,-3.693 -1.544,0 0,9.826 2.274,0 c 1.544,0 2.302,-0.855 2.302,-2.427"
             style="fill:#ffffff;fill-opacity:1;fill-rule:nonzero;stroke:none"
             id="path714" /></g><g
           id="g716"
           transform="translate(423.8555,284.6943)"><path
             d="M 0,0 1.488,0 0.744,4.97 0,0 z m 3.523,-3.116 -1.557,0 -0.267,1.783 -1.895,0 -0.267,-1.783 -1.418,0 1.572,9.826 2.26,0 1.572,-9.826 z"
             style="fill:#ffffff;fill-opacity:1;fill-rule:nonzero;stroke:none"
             id="path718" /></g><path
           d="m 428.695,291.404 1.544,0 0,-9.826 -1.544,0 0,9.826 z"
           style="fill:#ffffff;fill-opacity:1;fill-rule:nonzero;stroke:none"
           id="path720" /><g
           id="g722"
           transform="translate(433.5078,290.001)"><path
             d="m 0,0 0,-3.019 0.604,0 c 0.576,0 0.926,0.253 0.926,1.04 l 0,0.968 C 1.53,-0.309 1.292,0 0.744,0 L 0,0 z m 1.685,-8.423 c -0.084,0.253 -0.14,0.407 -0.14,1.207 l 0,1.545 c 0,0.912 -0.31,1.249 -1.012,1.249 l -0.533,0 0,-4.001 -1.544,0 0,9.826 2.33,0 c 1.601,0 2.288,-0.743 2.288,-2.259 l 0,-0.772 c 0,-1.012 -0.322,-1.671 -1.011,-1.994 0.773,-0.322 1.026,-1.066 1.026,-2.092 l 0,-1.515 c 0,-0.478 0.014,-0.829 0.168,-1.194 l -1.572,0 z"
             style="fill:#ffffff;fill-opacity:1;fill-rule:nonzero;stroke:none"
             id="path724" /></g><g
           id="g726"
           transform="translate(156.5837,320.4653)"><path
             d="m 0,0 11.702,-34.599 c 2.49,1.887 4.991,4.347 7.476,7.358 L 0.173,0.021 C 0.115,0.015 0.058,0.007 0,0"
             style="fill:#ffffff;fill-opacity:1;fill-rule:nonzero;stroke:none"
             id="path728" /></g><g
           id="g730"
           transform="translate(225.6988,286.0757)"><path
             d="m 0,0 5.745,-0.709 c 0,0 -7.625,-7.016 -14.868,-9.053 0,0 5.718,3.395 9.123,9.762"
             style="fill:#ffffff;fill-opacity:1;fill-rule:nonzero;stroke:none"
             id="path732" /></g><g
           id="g734"
           transform="translate(193.6147,828.8896)" /><g
           id="g738"
           transform="translate(197.1631,828.8896)" /><g
           id="g742"
           transform="translate(248.7119,820.1797)" /><g
           id="g746"
           transform="translate(269.2949,794.6953)" /><g
           id="g750"
           transform="translate(351.7148,827.7129)" /><g
           id="g754"
           transform="translate(372.71,805.1611)" /><g
           id="g758"
           transform="translate(413.8252,805.1611)" /><g
           id="g762"
           transform="translate(178.6602,772.8613)" /><g
           id="g766"
           transform="translate(187.8711,782.6416)" /><g
           id="g770"
           transform="translate(194.0947,782.6416)" /><g
           id="g774"
           transform="translate(204.9834,771.6123)" /><g
           id="g778"
           transform="translate(216.6704,772.4717)" /><g
           id="g782"
           transform="translate(225.9233,771.6123)" /><g
           id="g786"
           transform="translate(232.1875,782.6416)" /><g
           id="g792"
           transform="translate(249.1753,770.958)" /><g
           id="g796"
           transform="translate(257.1382,776.6055)" /><g
           id="g800"
           transform="translate(270.3813,782.8057)" /><g
           id="g804"
           transform="translate(278.1396,776.6055)" /><g
           id="g808"
           transform="translate(286.5522,780.5957)" /><g
           id="g812"
           transform="translate(296.7666,770.958)" /><g
           id="g818"
           transform="translate(313.7744,773.6592)" /><g
           id="g822"
           transform="translate(318.2793,776.6055)" /><g
           id="g826"
           transform="translate(327.4687,782.8057)" /><g
           id="g830"
           transform="translate(340.4668,770.2012)" /><g
           id="g834"
           transform="translate(352.6875,780.5957)" /><g
           id="g838"
           transform="translate(361.7959,776.6055)" /><g
           id="g842"
           transform="translate(370.209,780.5957)" /><g
           id="g846"
           transform="translate(378.4375,772.8613)" /><g
           id="g852"
           transform="translate(392.5205,780.5957)" /><g
           id="g856"
           transform="translate(255.9209,940.0618)"><path
             d="m 0,0 18.393,-54.383 c 3.914,2.966 7.844,6.832 11.751,11.566 L 0.272,0.033 C 0.181,0.023 0.091,0.011 0,0"
             style="fill:#e91b2f;fill-opacity:1;fill-rule:nonzero;stroke:none"
             id="path858" /></g><g
           id="g860"
           transform="translate(340.5414,913.8273)"><path
             d="M 0,0 15.564,17.432 37.2,-0.381 60.997,42.224 34.344,17.857 21.062,41.579 29.733,41.611 37.831,55.78 30.745,69.306 11.767,69.073 4.754,55.251 -31.705,64.176 -57.447,29.758 c 4.628,4.147 19.473,14.96 22.518,17.688 L -9.816,40.099 C -18.123,22.448 -25.307,8.133 -33.994,-6.179 c -11.992,-19.757 -26.975,-37.446 -45.482,-40.152 -27.067,-4.454 -51.359,19.689 -47.101,46.406 4.205,26.38 31.867,43.487 59.207,36.06 -32.425,12.199 -68.369,-7.348 -73.593,-40.121 -4.483,-28.128 15.888,-54.4 45.5,-58.681 7.004,-1.013 13.893,-0.69 20.396,0.743 7.581,1.195 15.927,4.121 24.685,9.826 4.096,2.667 8.281,5.946 12.521,9.939 5.893,5.55 11.879,11.103 17.883,19.711 l 0.141,0.011 43.622,-5.877 c -7.988,-14.687 -25.079,-23.692 -43.234,-21.067 -3.119,0.451 -6.097,1.229 -8.918,2.274 l -11.775,-12.404 c 1.042,-0.578 2.115,-1.116 3.205,-1.628 4.775,-2.244 9.98,-3.852 15.528,-4.654 C 13.789,-70.882 44.29,-42.134 38.96,-8.547 26.172,-5.752 11.933,-3.018 0,0"
             style="fill:#ed1c24;fill-opacity:1;fill-rule:nonzero;stroke:none"
             id="path862" /></g></g></g><g
       id="g864"><g
         id="g866"
         clip-path="url(#clipPath868)"><g
           id="g872"><g
             id="g874"><path
               d="m 299.558,885.961 7.191,-10.436 c 5.792,5.029 14.001,16.012 14.001,16.012 l 0,0 -19.993,2.393 -1.199,-7.969 z"
               style="fill:url(#linearGradient876);stroke:none"
               id="path882" /></g></g></g></g><g
       id="g884"><g
         id="g886"
         clip-path="url(#clipPath888)"><g
           id="g892"><g
             id="g894"><path
               d="m 200.869,914.893 0.118,-0.091 c -3.831,-28.083 16.025,-54.36 55.681,-47.979 l 0,0 c -27.196,-0.317 -46.233,23.016 -42.688,46.416 l 0,0 c 4.003,26.412 31.533,43.731 58.929,36.515 l 0,0 c -6.497,2.387 -13.129,3.506 -19.615,3.507 l 0,0 c -24.007,10e-4 -46.074,-15.32 -52.425,-38.368"
               style="fill:url(#linearGradient896);stroke:none"
               id="path902" /></g></g></g></g><g
       id="g904"><g
         id="g906"
         clip-path="url(#clipPath908)"><g
           id="g912"><g
             id="g914"><path
               d="m 346.097,920.399 9.887,11.29 -18.584,17.343 8.697,-28.633 z"
               style="fill:url(#linearGradient916);stroke:none"
               id="path922" /></g></g></g></g><g
       id="g924"><g
         id="g926"
         clip-path="url(#clipPath928)"><g
           id="g932"><g
             id="g934"><path
               d="m 361.296,955.877 8.67,0.099 -15.181,9.487 6.511,-9.586 z"
               style="fill:url(#linearGradient936);stroke:none"
               id="path942" /></g></g></g></g><g
       id="g944"><g
         id="g946"
         clip-path="url(#clipPath948)"><g
           id="g952"><g
             id="g954"><path
               d="m 305.261,961.314 25.845,-7.287 -21.295,21.703 -4.55,-14.416 z"
               style="fill:url(#linearGradient956);stroke:none"
               id="path962" /></g></g></g></g><g
       id="g964"><g
         id="g966"
         clip-path="url(#clipPath968)"><g
           id="g972"
           transform="translate(377.1566,885.0125)"><path
             d="M 0,0 -12.6,0.995 C -19.839,-12.563 -34.81,-21.37 -51.299,-20.773 -12.064,-27.013 0,0 0,0"
             style="fill:#ed1c24;fill-opacity:1;fill-rule:nonzero;stroke:none"
             id="path974" /></g></g></g><g
       id="g976"><g
         id="g978"
         clip-path="url(#clipPath980)"><g
           id="g984"><g
             id="g986"><path
               d="m 350.217,870.663 c 11.385,3.202 23.369,14.23 23.369,14.23 l 0,0 -9.029,1.115 C 359.205,876 350.217,870.663 350.217,870.663"
               style="fill:url(#linearGradient988);stroke:none"
               id="path994" /></g></g></g></g><g
       id="g996"><g
         id="g998"
         clip-path="url(#clipPath1000)"><g
           id="g1004"
           transform="translate(130.649,283.2803)"><path
             d="M 0,0 C 4.457,-4.292 10.594,-6.452 18.285,-6.477 6.62,-2.677 -1.754,9.252 0.298,22.127 2.974,38.91 20.572,49.794 37.966,45.069 22.437,50.911 5.648,45.305 -3.123,33.281 -7.348,27.49 -8.807,20.106 -7.095,13.144 -5.988,8.645 -3.898,3.753 0,0"
             style="fill:#ffffff;fill-opacity:1;fill-rule:nonzero;stroke:none"
             id="path1006" /></g><g
           id="g1008"
           transform="translate(195.0644,272.9608)"><path
             d="m 0,0 c -0.92,0.239 -1.818,0.52 -2.692,0.844 l -7.491,-7.892 c 0.663,-0.368 1.345,-0.71 2.039,-1.036 3.038,-1.427 6.349,-2.45 9.879,-2.96 11.547,-1.67 22.29,2.394 29.532,9.643 C 18.311,-4.67 5.53,-1.682 0,0"
             style="fill:#ffffff;fill-opacity:1;fill-rule:nonzero;stroke:none"
             id="path1010" /></g><g
           id="g1012"
           transform="translate(210.4201,303.9728)"><path
             d="M 0,0 9.902,11.09 23.667,-0.242 38.807,26.863 21.85,11.361 13.4,26.453 l -2.026,3.136 3.434,-2.443 3.5,-0.661 5.761,9.003 L 19.56,44.093 7.486,43.945 3.025,35.151 -20.171,40.83 -36.549,18.932 c 2.945,2.639 12.39,9.518 14.327,11.254 l 13.576,-3.972 3.773,3.177 -1.46,-3.854 0.088,-0.025 C -11.53,14.282 -16.1,5.174 -21.627,-3.931 c -7.63,-12.569 -17.162,-23.824 -28.937,-25.545 -10.766,-1.772 -23.554,-1.27 -31.37,6.261 -4.979,4.798 -7.177,11.181 -8.12,16.525 -0.414,-16.259 11.948,-30.668 29.32,-33.179 4.456,-0.645 8.839,-0.439 12.976,0.473 4.823,0.76 10.133,2.621 15.705,6.25 2.605,1.698 5.268,3.784 7.966,6.324 3.748,3.531 7.557,7.064 11.377,12.54 l 0.09,0.007 27.752,-3.739 c -3.492,-6.421 -9.724,-11.119 -17.029,-12.893 5.711,0.089 15.877,0.892 22.779,5.085 3.501,5.907 5.084,12.957 3.905,20.385 C 16.651,-3.659 7.592,-1.92 0,0"
             style="fill:#ffffff;fill-opacity:1;fill-rule:nonzero;stroke:none"
             id="path1014" /></g><path
           d="m 280.77,277.095 160.617,0 0,19.02 -160.617,0 0,-19.02 z m 161.41,-0.792 -162.202,0 0,20.605 162.202,0 0,-20.605 z"
           style="fill:#ffffff;fill-opacity:1;fill-rule:nonzero;stroke:none"
           id="path1016" /><g
           id="g1018"
           transform="translate(294.1631,118.3652)"><path
             d="m 0,0 c -0.196,-0.392 -0.524,-0.901 -0.985,-1.529 -0.461,-0.629 -0.95,-1.25 -1.466,-1.865 -0.517,-0.615 -1.02,-1.145 -1.508,-1.592 -0.49,-0.447 -0.846,-0.67 -1.069,-0.67 l -12.905,0 -2.388,-6.578 3.981,3.854 9.678,0 -5.991,-5.656 -8.338,0 -0.922,-2.514 16.047,0 c -0.028,-0.056 -0.098,-0.175 -0.21,-0.356 -0.111,-0.182 -0.223,-0.37 -0.335,-0.566 -0.111,-0.195 -0.224,-0.377 -0.335,-0.545 -0.112,-0.167 -0.182,-0.265 -0.209,-0.293 -0.252,-0.335 -0.594,-0.726 -1.027,-1.172 -0.433,-0.448 -0.859,-0.874 -1.278,-1.279 -0.419,-0.405 -0.789,-0.747 -1.11,-1.026 -0.321,-0.279 -0.496,-0.419 -0.524,-0.419 l -21.074,0 L -23.882,0 0,0 z"
             style="fill:#231f20;fill-opacity:1;fill-rule:nonzero;stroke:none"
             id="path1020" /></g><g
           id="g1022"
           transform="translate(296.4678,118.3652)"><path
             d="M 0,0 10.14,0 12.527,-12.485 17.094,0 l 7.961,0 -8.086,-22.206 -10.14,0 -2.346,12.485 -4.525,-12.485 -8.044,0 L 0,0 z"
             style="fill:#231f20;fill-opacity:1;fill-rule:nonzero;stroke:none"
             id="path1024" /></g><g
           id="g1026"
           transform="translate(329.9434,112.709)"><path
             d="m 0,0 -3.98,-10.894 1.088,0 c 0.755,0 1.579,0.147 2.473,0.44 0.894,0.294 1.773,0.678 2.64,1.152 0.865,0.475 1.668,1.013 2.409,1.614 0.739,0.6 1.319,1.208 1.738,1.822 0.168,0.223 0.357,0.474 0.566,0.755 0.21,0.278 0.383,0.599 0.524,0.963 0.167,0.447 0.335,0.879 0.502,1.298 0.168,0.42 0.252,0.811 0.252,1.174 0,0.475 -0.105,0.872 -0.315,1.195 C 7.688,-0.161 7.317,0 6.787,0 L 0,0 z m 14.287,-6.536 c -1.201,-1.817 -2.409,-3.36 -3.624,-4.63 -1.216,-1.272 -2.528,-2.305 -3.938,-3.101 -1.412,-0.796 -2.961,-1.376 -4.652,-1.738 -1.689,-0.363 -3.624,-0.545 -5.802,-0.545 l -10.433,0 8.087,22.206 18.225,0 c 1.676,0 2.891,-0.461 3.645,-1.383 0.755,-0.921 1.132,-2.094 1.132,-3.519 0,-1.089 -0.224,-2.283 -0.671,-3.582 -0.447,-1.299 -1.104,-2.535 -1.969,-3.708"
             style="fill:#231f20;fill-opacity:1;fill-rule:nonzero;stroke:none"
             id="path1028" /></g><g
           id="g1030"
           transform="translate(343.3496,96.1592)"><path
             d="m 0,0 8.087,22.206 8.002,0 -6.033,-16.55 13.282,0 c 0.027,0 -0.133,-0.237 -0.483,-0.712 C 22.506,4.469 22.066,3.917 21.536,3.289 21.005,2.66 20.446,2.032 19.86,1.403 19.273,0.775 18.784,0.307 18.394,0 L 0,0 z"
             style="fill:#231f20;fill-opacity:1;fill-rule:nonzero;stroke:none"
             id="path1032" /></g><g
           id="g1034"
           transform="translate(398.7812,118.3652)"><path
             d="m 0,0 c -0.196,-0.392 -0.524,-0.901 -0.984,-1.529 -0.461,-0.629 -0.951,-1.25 -1.467,-1.865 -0.518,-0.615 -1.021,-1.145 -1.509,-1.592 -0.488,-0.447 -0.845,-0.67 -1.068,-0.67 l -12.905,0 -2.387,-6.578 3.979,3.854 9.679,0 -5.991,-5.656 -8.338,0 -0.922,-2.514 16.047,0 c -0.029,-0.056 -0.098,-0.175 -0.209,-0.356 -0.112,-0.182 -0.225,-0.37 -0.336,-0.566 -0.111,-0.195 -0.224,-0.377 -0.335,-0.545 -0.111,-0.167 -0.182,-0.265 -0.209,-0.293 -0.252,-0.335 -0.594,-0.726 -1.026,-1.172 -0.434,-0.448 -0.86,-0.874 -1.279,-1.279 -0.419,-0.405 -0.789,-0.747 -1.11,-1.026 -0.321,-0.279 -0.496,-0.419 -0.524,-0.419 l -21.075,0 L -23.882,0 0,0 z"
             style="fill:#231f20;fill-opacity:1;fill-rule:nonzero;stroke:none"
             id="path1036" /></g><g
           id="g1038"
           transform="translate(412.9014,103.1982)"><path
             d="M 0,0 0,0.251 C 0,0.475 -0.042,0.705 -0.126,0.942 -0.21,1.18 -0.364,1.299 -0.587,1.299 l -8.38,0 c -0.838,0 -1.592,0.202 -2.262,0.607 -0.67,0.405 -1.25,0.922 -1.739,1.55 -0.489,0.629 -0.859,1.32 -1.11,2.074 -0.252,0.754 -0.377,1.494 -0.377,2.221 0,0.67 0.195,1.431 0.586,2.283 0.391,0.852 0.893,1.662 1.509,2.431 0.614,0.767 1.312,1.41 2.094,1.927 0.783,0.516 1.565,0.775 2.347,0.775 l 21.368,0 c -0.643,-0.95 -1.377,-1.899 -2.2,-2.85 C 10.425,11.368 9.511,10.418 8.505,9.469 l -13.826,0 C -5.629,9.469 -5.895,9.26 -6.117,8.84 -6.342,8.421 -6.453,8.086 -6.453,7.835 l 0,-0.21 c 0,-0.028 0.056,-0.091 0.168,-0.188 0.111,-0.098 0.195,-0.175 0.251,-0.231 0.111,-0.111 0.272,-0.217 0.482,-0.314 0.209,-0.098 0.328,-0.147 0.356,-0.147 l 7.961,0 C 3.687,6.745 4.468,6.528 5.111,6.096 5.753,5.662 6.277,5.118 6.683,4.462 7.087,3.806 7.38,3.101 7.562,2.346 7.743,1.592 7.834,0.894 7.834,0.251 L 7.834,0 C 7.834,-0.727 7.667,-1.502 7.332,-2.325 6.996,-3.149 6.557,-3.911 6.012,-4.609 5.467,-5.308 4.839,-5.887 4.127,-6.348 3.414,-6.809 2.681,-7.039 1.927,-7.039 l -21.368,0 c 0.139,0.279 0.425,0.726 0.859,1.341 0.433,0.614 0.894,1.236 1.383,1.864 0.488,0.629 0.942,1.188 1.361,1.676 0.419,0.488 0.67,0.733 0.754,0.733 l 14.245,0 c 0.419,0 0.664,0.126 0.734,0.377 C -0.036,-0.796 0,-0.531 0,-0.252 L 0,0 z"
             style="fill:#231f20;fill-opacity:1;fill-rule:nonzero;stroke:none"
             id="path1040" /></g><g
           id="g1042"
           transform="translate(440.5537,103.1982)"><path
             d="M 0,0 0,0.251 C 0,0.475 -0.042,0.705 -0.126,0.942 -0.21,1.18 -0.364,1.299 -0.587,1.299 l -8.38,0 c -0.838,0 -1.592,0.202 -2.262,0.607 -0.67,0.405 -1.25,0.922 -1.739,1.55 -0.489,0.629 -0.859,1.32 -1.11,2.074 -0.252,0.754 -0.377,1.494 -0.377,2.221 0,0.67 0.195,1.431 0.586,2.283 0.391,0.852 0.893,1.662 1.509,2.431 0.614,0.767 1.312,1.41 2.094,1.927 0.783,0.516 1.565,0.775 2.347,0.775 l 21.368,0 c -0.643,-0.95 -1.377,-1.899 -2.2,-2.85 C 10.425,11.368 9.511,10.418 8.505,9.469 l -13.826,0 C -5.629,9.469 -5.895,9.26 -6.117,8.84 -6.342,8.421 -6.453,8.086 -6.453,7.835 l 0,-0.21 c 0,-0.028 0.056,-0.091 0.168,-0.188 0.111,-0.098 0.195,-0.175 0.251,-0.231 0.111,-0.111 0.272,-0.217 0.482,-0.314 0.209,-0.098 0.328,-0.147 0.356,-0.147 l 7.961,0 C 3.687,6.745 4.468,6.528 5.111,6.096 5.753,5.662 6.277,5.118 6.683,4.462 7.087,3.806 7.38,3.101 7.562,2.346 7.743,1.592 7.834,0.894 7.834,0.251 L 7.834,0 C 7.834,-0.727 7.667,-1.502 7.332,-2.325 6.996,-3.149 6.557,-3.911 6.012,-4.609 5.467,-5.308 4.839,-5.887 4.127,-6.348 3.414,-6.809 2.681,-7.039 1.927,-7.039 l -21.368,0 c 0.139,0.279 0.425,0.726 0.859,1.341 0.433,0.614 0.894,1.236 1.383,1.864 0.488,0.629 0.942,1.188 1.361,1.676 0.419,0.488 0.67,0.733 0.754,0.733 l 14.245,0 c 0.419,0 0.664,0.126 0.734,0.377 C -0.036,-0.796 0,-0.531 0,-0.252 L 0,0 z"
             style="fill:#231f20;fill-opacity:1;fill-rule:nonzero;stroke:none"
             id="path1044" /></g><g
           id="g1046"
           transform="translate(287.5557,77.4746)"><path
             d="M 0,0 1.409,0 0.704,4.705 0,0 z m 3.336,-2.95 -1.476,0 -0.252,1.687 -1.794,0 -0.252,-1.687 -1.343,0 1.489,9.304 2.139,0 1.489,-9.304 z"
             style="fill:#231f20;fill-opacity:1;fill-rule:nonzero;stroke:none"
             id="path1048" /></g><g
           id="g1050"
           transform="translate(293.5376,83.8281)"><path
             d="m 0,0 0,-7.178 c 0,-0.664 0.292,-0.903 0.757,-0.903 0.466,0 0.758,0.239 0.758,0.903 l 0,7.178 1.382,0 0,-7.084 c 0,-1.488 -0.744,-2.339 -2.179,-2.339 -1.436,0 -2.18,0.851 -2.18,2.339 L -1.462,0 0,0 z"
             style="fill:#231f20;fill-opacity:1;fill-rule:nonzero;stroke:none"
             id="path1052" /></g><g
           id="g1054"
           transform="translate(297.5791,83.8281)"><path
             d="m 0,0 4.519,0 0,-1.329 -1.529,0 0,-7.975 -1.462,0 0,7.975 L 0,-1.329 0,0 z"
             style="fill:#231f20;fill-opacity:1;fill-rule:nonzero;stroke:none"
             id="path1056" /></g><g
           id="g1058"
           transform="translate(304.6504,76.6641)"><path
             d="m 0,0 c 0,-0.664 0.292,-0.917 0.757,-0.917 0.466,0 0.758,0.253 0.758,0.917 l 0,5.023 C 1.515,5.688 1.223,5.941 0.757,5.941 0.292,5.941 0,5.688 0,5.023 L 0,0 z m -1.462,4.931 c 0,1.488 0.784,2.339 2.219,2.339 1.435,0 2.22,-0.851 2.22,-2.339 l 0,-4.838 c 0,-1.489 -0.785,-2.339 -2.22,-2.339 -1.435,0 -2.219,0.85 -2.219,2.339 l 0,4.838 z"
             style="fill:#231f20;fill-opacity:1;fill-rule:nonzero;stroke:none"
             id="path1060" /></g><g
           id="g1062"
           transform="translate(312.2393,77.2227)"><path
             d="m 0,0 0.997,6.605 2.033,0 0,-9.303 -1.382,0 0,6.672 -1.009,-6.672 -1.383,0 -1.089,6.579 0,-6.579 -1.276,0 0,9.303 2.033,0 L 0,0 z"
             style="fill:#231f20;fill-opacity:1;fill-rule:nonzero;stroke:none"
             id="path1064" /></g><g
           id="g1066"
           transform="translate(318.248,76.6641)"><path
             d="m 0,0 c 0,-0.664 0.292,-0.917 0.758,-0.917 0.465,0 0.757,0.253 0.757,0.917 l 0,5.023 C 1.515,5.688 1.223,5.941 0.758,5.941 0.292,5.941 0,5.688 0,5.023 L 0,0 z m -1.462,4.931 c 0,1.488 0.784,2.339 2.22,2.339 1.434,0 2.219,-0.851 2.219,-2.339 l 0,-4.838 c 0,-1.489 -0.785,-2.339 -2.219,-2.339 -1.436,0 -2.22,0.85 -2.22,2.339 l 0,4.838 z"
             style="fill:#231f20;fill-opacity:1;fill-rule:nonzero;stroke:none"
             id="path1068" /></g><g
           id="g1070"
           transform="translate(322.3164,83.8281)"><path
             d="m 0,0 4.519,0 0,-1.329 -1.529,0 0,-7.975 -1.462,0 0,7.975 L 0,-1.329 0,0 z"
             style="fill:#231f20;fill-opacity:1;fill-rule:nonzero;stroke:none"
             id="path1072" /></g><path
           d="m 328.045,83.828 1.462,0 0,-9.304 -1.462,0 0,9.304 z"
           style="fill:#231f20;fill-opacity:1;fill-rule:nonzero;stroke:none"
           id="path1074" /><g
           id="g1076"
           transform="translate(333.3486,76.2393)"><path
             d="m 0,0 1.116,7.589 1.342,0 -1.436,-9.304 -2.178,0 -1.436,9.304 1.475,0 L 0,0 z"
             style="fill:#231f20;fill-opacity:1;fill-rule:nonzero;stroke:none"
             id="path1078" /></g><g
           id="g1080"
           transform="translate(338.5186,79.9072)"><path
             d="m 0,0 2.007,0 0,-1.329 -2.007,0 0,-2.725 2.525,0 0,-1.329 -3.987,0 0,9.304 3.987,0 0,-1.329 L 0,2.592 0,0 z"
             style="fill:#231f20;fill-opacity:1;fill-rule:nonzero;stroke:none"
             id="path1082" /></g><g
           id="g1084"
           transform="translate(347.1201,83.9336)"><path
             d="m 0,0 c 1.422,0 2.152,-0.851 2.152,-2.339 l 0,-0.292 -1.381,0 0,0.385 c 0,0.665 -0.266,0.918 -0.732,0.918 -0.465,0 -0.73,-0.253 -0.73,-0.918 0,-1.913 2.857,-2.273 2.857,-4.931 0,-1.488 -0.744,-2.339 -2.18,-2.339 -1.435,0 -2.179,0.851 -2.179,2.339 l 0,0.573 1.381,0 0,-0.666 c 0,-0.664 0.293,-0.903 0.758,-0.903 0.465,0 0.758,0.239 0.758,0.903 0,1.915 -2.857,2.273 -2.857,4.931 C -2.153,-0.851 -1.423,0 0,0"
             style="fill:#231f20;fill-opacity:1;fill-rule:nonzero;stroke:none"
             id="path1086" /></g><g
           id="g1088"
           transform="translate(352.1572,79.9072)"><path
             d="m 0,0 2.007,0 0,-1.329 -2.007,0 0,-2.725 2.525,0 0,-1.329 -3.987,0 0,9.304 3.987,0 0,-1.329 L 0,2.592 0,0 z"
             style="fill:#231f20;fill-opacity:1;fill-rule:nonzero;stroke:none"
             id="path1090" /></g><g
           id="g1092"
           transform="translate(357.6201,82.499)"><path
             d="m 0,0 0,-2.857 0.572,0 c 0.545,0 0.877,0.239 0.877,0.983 l 0,0.917 C 1.449,-0.293 1.223,0 0.705,0 L 0,0 z m 1.596,-7.975 c -0.08,0.24 -0.134,0.386 -0.134,1.143 l 0,1.462 c 0,0.864 -0.292,1.183 -0.956,1.183 l -0.506,0 0,-3.788 -1.462,0 0,9.304 2.207,0 c 1.515,0 2.166,-0.705 2.166,-2.141 l 0,-0.73 c 0,-0.957 -0.306,-1.582 -0.957,-1.888 0.731,-0.305 0.97,-1.009 0.97,-1.979 l 0,-1.436 c 0,-0.452 0.014,-0.784 0.16,-1.13 l -1.488,0 z"
             style="fill:#231f20;fill-opacity:1;fill-rule:nonzero;stroke:none"
             id="path1094" /></g><g
           id="g1096"
           transform="translate(364.2539,76.2393)"><path
             d="m 0,0 1.116,7.589 1.342,0 -1.436,-9.304 -2.178,0 -1.436,9.304 1.475,0 L 0,0 z"
             style="fill:#231f20;fill-opacity:1;fill-rule:nonzero;stroke:none"
             id="path1098" /></g><path
           d="m 367.963,83.828 1.462,0 0,-9.304 -1.462,0 0,9.304 z"
           style="fill:#231f20;fill-opacity:1;fill-rule:nonzero;stroke:none"
           id="path1100" /><g
           id="g1102"
           transform="translate(375.2998,77.9932)"><path
             d="m 0,0 0,-1.236 c 0,-1.489 -0.744,-2.339 -2.18,-2.339 -1.435,0 -2.179,0.85 -2.179,2.339 l 0,4.838 c 0,1.488 0.744,2.338 2.179,2.338 C -0.744,5.94 0,5.09 0,3.602 l 0,-0.904 -1.383,0 0,0.996 c 0,0.665 -0.292,0.918 -0.757,0.918 -0.465,0 -0.757,-0.253 -0.757,-0.918 l 0,-5.023 c 0,-0.664 0.292,-0.903 0.757,-0.903 0.465,0 0.757,0.239 0.757,0.903 L -1.383,0 0,0 z"
             style="fill:#231f20;fill-opacity:1;fill-rule:nonzero;stroke:none"
             id="path1104" /></g><g
           id="g1106"
           transform="translate(378.2236,79.9072)"><path
             d="m 0,0 2.007,0 0,-1.329 -2.007,0 0,-2.725 2.525,0 0,-1.329 -3.987,0 0,9.304 3.987,0 0,-1.329 L 0,2.592 0,0 z"
             style="fill:#231f20;fill-opacity:1;fill-rule:nonzero;stroke:none"
             id="path1108" /></g><g
           id="g1110"
           transform="translate(384.1934,83.9336)"><path
             d="m 0,0 c 1.422,0 2.152,-0.851 2.152,-2.339 l 0,-0.292 -1.381,0 0,0.385 c 0,0.665 -0.266,0.918 -0.732,0.918 -0.465,0 -0.73,-0.253 -0.73,-0.918 0,-1.913 2.857,-2.273 2.857,-4.931 0,-1.488 -0.744,-2.339 -2.18,-2.339 -1.435,0 -2.179,0.851 -2.179,2.339 l 0,0.573 1.381,0 0,-0.666 c 0,-0.664 0.293,-0.903 0.758,-0.903 0.465,0 0.758,0.239 0.758,0.903 0,1.915 -2.857,2.273 -2.857,4.931 C -2.153,-0.851 -1.423,0 0,0"
             style="fill:#231f20;fill-opacity:1;fill-rule:nonzero;stroke:none"
             id="path1112" /></g><g
           id="g1114"
           transform="translate(392.6338,75.7471)"><path
             d="m 0,0 c 0.438,0 0.73,0.226 0.757,0.811 l 0,2.153 -0.558,0 c -0.665,0 -0.957,-0.319 -0.957,-1.183 l 0,-0.864 C -0.758,0.253 -0.466,0 0,0 M -1.21,3.694 C -1.9,3.987 -2.22,4.612 -2.22,5.608 l 0,0.173 c 0,1.489 0.718,2.3 2.18,2.3 l 1.675,0 0,-1.329 -1.649,0 c -0.465,0 -0.744,-0.239 -0.744,-0.904 l 0,-0.572 c 0,-0.744 0.332,-0.983 0.877,-0.983 l 0.638,0 0,1.036 1.463,0 0,-1.036 0.384,0 0,-1.329 -0.384,0 0,-3.057 c 0,-0.452 0.012,-0.784 0.159,-1.13 l -1.488,0 c -0.067,0.187 -0.107,0.32 -0.134,0.732 -0.252,-0.545 -0.704,-0.838 -1.356,-0.838 -1.076,0 -1.621,0.758 -1.621,2.127 l 0,0.943 c 0,0.944 0.292,1.635 1.01,1.953"
             style="fill:#231f20;fill-opacity:1;fill-rule:nonzero;stroke:none"
             id="path1116" /></g><g
           id="g1118"
           transform="translate(400.5684,82.499)"><path
             d="m 0,0 0,-2.857 0.572,0 c 0.545,0 0.877,0.239 0.877,0.983 l 0,0.917 C 1.449,-0.293 1.223,0 0.705,0 L 0,0 z m 1.596,-7.975 c -0.08,0.24 -0.134,0.386 -0.134,1.143 l 0,1.462 c 0,0.864 -0.292,1.183 -0.956,1.183 l -0.506,0 0,-3.788 -1.462,0 0,9.304 2.207,0 c 1.515,0 2.166,-0.705 2.166,-2.141 l 0,-0.73 c 0,-0.957 -0.306,-1.582 -0.957,-1.888 0.732,-0.305 0.97,-1.009 0.97,-1.979 l 0,-1.436 c 0,-0.452 0.014,-0.784 0.16,-1.13 l -1.488,0 z"
             style="fill:#231f20;fill-opacity:1;fill-rule:nonzero;stroke:none"
             id="path1120" /></g><g
           id="g1122"
           transform="translate(406.4844,79.9072)"><path
             d="m 0,0 2.007,0 0,-1.329 -2.007,0 0,-2.725 2.525,0 0,-1.329 -3.987,0 0,9.304 3.987,0 0,-1.329 L 0,2.592 0,0 z"
             style="fill:#231f20;fill-opacity:1;fill-rule:nonzero;stroke:none"
             id="path1124" /></g><g
           id="g1126"
           transform="translate(411.9473,82.499)"><path
             d="m 0,0 0,-3.15 0.691,0 c 0.465,0 0.718,0.212 0.718,0.877 l 0,1.395 C 1.409,-0.213 1.156,0 0.691,0 L 0,0 z m 2.871,-0.971 0,-1.209 c 0,-1.489 -0.718,-2.299 -2.18,-2.299 l -0.691,0 0,-3.496 -1.462,0 0,9.304 2.153,0 c 1.462,0 2.18,-0.811 2.18,-2.3"
             style="fill:#231f20;fill-opacity:1;fill-rule:nonzero;stroke:none"
             id="path1128" /></g><g
           id="g1130"
           transform="translate(417.291,77.4746)"><path
             d="M 0,0 1.409,0 0.705,4.705 0,0 z m 3.336,-2.95 -1.475,0 -0.253,1.687 -1.794,0 -0.252,-1.687 -1.342,0 1.488,9.304 2.14,0 1.488,-9.304 z"
             style="fill:#231f20;fill-opacity:1;fill-rule:nonzero;stroke:none"
             id="path1132" /></g><path
           d="m 421.878,83.828 1.462,0 0,-9.304 -1.462,0 0,9.304 z"
           style="fill:#231f20;fill-opacity:1;fill-rule:nonzero;stroke:none"
           id="path1134" /><g
           id="g1136"
           transform="translate(426.4365,82.499)"><path
             d="m 0,0 0,-2.857 0.572,0 c 0.545,0 0.877,0.239 0.877,0.983 l 0,0.917 C 1.449,-0.293 1.223,0 0.705,0 L 0,0 z m 1.596,-7.975 c -0.08,0.24 -0.134,0.386 -0.134,1.143 l 0,1.462 c 0,0.864 -0.292,1.183 -0.956,1.183 l -0.506,0 0,-3.788 -1.462,0 0,9.304 2.207,0 c 1.515,0 2.166,-0.705 2.166,-2.141 l 0,-0.73 c 0,-0.957 -0.306,-1.582 -0.957,-1.888 0.731,-0.305 0.97,-1.009 0.97,-1.979 l 0,-1.436 c 0,-0.452 0.014,-0.784 0.16,-1.13 l -1.488,0 z"
             style="fill:#231f20;fill-opacity:1;fill-rule:nonzero;stroke:none"
             id="path1138" /></g><g
           id="g1140"
           transform="translate(164.0782,111.3664)"><path
             d="m 0,0 11.086,-32.779 c 2.36,1.787 4.729,4.118 7.083,6.971 L 0.164,0.02 C 0.109,0.014 0.055,0.006 0,0"
             style="fill:#231f20;fill-opacity:1;fill-rule:nonzero;stroke:none"
             id="path1142" /></g><g
           id="g1144"
           transform="translate(229.5583,78.7854)"><path
             d="m 0,0 5.442,-0.671 c 0,0 -7.223,-6.648 -14.085,-8.578 0,0 5.417,3.217 8.643,9.249"
             style="fill:#231f20;fill-opacity:1;fill-rule:nonzero;stroke:none"
             id="path1146" /></g><g
           id="g1148"
           transform="translate(139.5075,76.1371)"><path
             d="M 0,0 C 4.223,-4.066 10.037,-6.113 17.323,-6.136 6.271,-2.536 -1.662,8.765 0.283,20.963 2.817,36.864 19.491,47.175 35.97,42.699 21.257,48.234 5.351,42.922 -2.958,31.531 -6.961,26.044 -8.344,19.048 -6.721,12.453 -5.673,8.19 -3.693,3.555 0,0"
             style="fill:#231f20;fill-opacity:1;fill-rule:nonzero;stroke:none"
             id="path1150" /></g><g
           id="g1152"
           transform="translate(200.5351,66.3603)"><path
             d="m 0,0 c -0.871,0.226 -1.723,0.493 -2.55,0.799 l -7.098,-7.476 c 0.629,-0.349 1.275,-0.673 1.932,-0.982 2.879,-1.352 6.016,-2.321 9.36,-2.805 10.94,-1.581 21.118,2.269 27.979,9.136 C 17.348,-4.424 5.24,-1.594 0,0"
             style="fill:#231f20;fill-opacity:1;fill-rule:nonzero;stroke:none"
             id="path1154" /></g><g
           id="g1156"
           transform="translate(215.0831,95.7413)"><path
             d="M 0,0 9.381,10.507 22.422,-0.23 36.766,25.451 20.701,10.763 l -8.006,14.299 -1.92,2.971 3.254,-2.315 3.316,-0.626 5.458,8.529 -4.272,8.153 L 7.093,41.634 2.866,33.303 -19.11,38.682 -34.626,17.937 c 2.789,2.499 11.737,9.017 13.572,10.661 L -8.191,24.835 -4.617,27.846 -6,24.194 -5.917,24.17 C -10.923,13.531 -15.254,4.902 -20.49,-3.724 c -7.228,-11.909 -16.259,-22.571 -27.414,-24.202 -10.2,-1.679 -22.316,-1.203 -29.721,5.932 -4.717,4.546 -6.799,10.593 -7.693,15.656 -0.392,-15.404 11.32,-29.055 27.778,-31.435 4.222,-0.61 8.374,-0.415 12.294,0.449 4.569,0.72 9.6,2.483 14.878,5.922 2.469,1.608 4.992,3.584 7.547,5.991 3.552,3.345 7.16,6.692 10.779,11.88 l 0.085,0.007 26.294,-3.542 c -3.309,-6.084 -9.214,-10.535 -16.134,-12.215 5.41,0.084 15.042,0.845 21.581,4.817 3.316,5.596 4.816,12.276 3.699,19.313 C 15.775,-3.467 7.193,-1.819 0,0"
             style="fill:#231f20;fill-opacity:1;fill-rule:nonzero;stroke:none"
             id="path1158" /></g><path
           d="m 281.733,70.278 152.17,0 0,18.02 -152.17,0 0,-18.02 z m 152.921,-0.751 -153.671,0 0,19.522 153.671,0 0,-19.522 z"
           style="fill:#231f20;fill-opacity:1;fill-rule:nonzero;stroke:none"
           id="path1160" /></g></g><text
       xml:space="preserve"
       style="font-size:36.54756164999999868px;font-style:normal;font-variant:normal;font-weight:normal;font-stretch:normal;line-height:125%;letter-spacing:0px;word-spacing:0px;fill:#ed1c24;fill-opacity:1;stroke:none;font-family:Abyssinica SIL;-inkscape-font-specification:Abyssinica SIL"
       x="166.53445"
       y="-1019.7335"
       id="text4137"
       sodipodi:linespacing="125%"
       transform="scale(0.8663001,-1.1543344)"><tspan
         sodipodi:role="line"
         id="tspan4139"
         x="166.53445"
         y="-1019.7335"
         style="font-style:italic;font-variant:normal;font-weight:bold;font-stretch:normal;font-family:Lohit Punjabi;-inkscape-font-specification:Lohit Punjabi Bold Italic;fill:#ed1c24;fill-opacity:1"><tspan
   style="fill:#000000;font-weight:bold;-inkscape-font-specification:Lohit Punjabi Bold Italic;font-style:italic"
   id="tspan4239">PACE </tspan>COURIERS</tspan></text>
<text
       transform="scale(0.8663001,-1.1543344)"
       sodipodi:linespacing="125%"
       id="text6060"
       y="-1019.7335"
       x="166.53445"
       style="font-size:36.54756164999999868px;font-style:normal;font-variant:normal;font-weight:normal;font-stretch:normal;line-height:125%;letter-spacing:0px;word-spacing:0px;fill:#ed1c24;fill-opacity:1;stroke:none;font-family:Abyssinica SIL;-inkscape-font-specification:Abyssinica SIL"
       xml:space="preserve"><tspan
         style="font-style:italic;font-variant:normal;font-weight:bold;font-stretch:normal;font-family:Lohit Punjabi;-inkscape-font-specification:Lohit Punjabi Bold Italic;fill:#ed1c24;fill-opacity:1"
         y="-1019.7335"
         x="166.53445"
         id="tspan6062"
         sodipodi:role="line"><tspan
   id="tspan6064"
   style="fill:#000000;font-weight:bold;-inkscape-font-specification:Lohit Punjabi Bold Italic;font-style:italic">PACE </tspan>COURIERS</tspan></text>
<text
       sodipodi:linespacing="125%"
       id="text6052-8"
       y="-778.28357"
       x="187.09987"
       style="font-size:25.60000038px;font-style:normal;font-variant:normal;font-weight:normal;font-stretch:normal;line-height:125%;letter-spacing:0px;word-spacing:0px;fill:#000000;fill-opacity:1;stroke:none;font-family:DejaVu Sans;-inkscape-font-specification:DejaVu Sans"
       xml:space="preserve"
       transform="scale(1,-1)"><tspan
         y="-778.28357"
         x="187.09987"
         id="tspan6054-6"
         sodipodi:role="line"><tspan
           id="tspan6056-2"
           style="font-weight:bold"><tspan
             id="tspan6058-7"
             style="font-size:16px"><tspan
               style="fill:#ffffff"
               id="tspan6110">Your priority our delivery </tspan></tspan></tspan></tspan></text>
<text
       transform="scale(0.86630009,-1.1543344)"
       sodipodi:linespacing="125%"
       id="text6060-1"
       y="-691.66052"
       x="189.95813"
       style="font-size:36.54756165px;font-style:normal;font-variant:normal;font-weight:normal;font-stretch:normal;line-height:125%;letter-spacing:0px;word-spacing:0px;fill:#ed1c24;fill-opacity:1;stroke:none;font-family:Abyssinica SIL;-inkscape-font-specification:Abyssinica SIL"
       xml:space="preserve"><tspan
         style="font-style:italic;font-variant:normal;font-weight:bold;font-stretch:normal;fill:#ed1c24;fill-opacity:1;font-family:Lohit Punjabi;-inkscape-font-specification:Lohit Punjabi Bold Italic"
         y="-691.66052"
         x="189.95813"
         id="tspan6062-5"
         sodipodi:role="line">PACE <tspan
   style="fill:#f2f2f2"
   id="tspan6104"><tspan
     style="fill:#f9f9f9"
     id="tspan6106"><tspan
       style="fill:#ffffff"
       id="tspan6108">COURIERS </tspan></tspan></tspan></tspan></text>
</g></svg>